<svg xmlns="http://www.w3.org/2000/svg" viewBox="0 0 1920 1061.49"><style><![CDATA[.B{letter-spacing:0.49em}.C{letter-spacing:0.46em}.D{letter-spacing:0.45em}.E{letter-spacing:0.43em}.F{letter-spacing:0.48em}.M{stroke-miterlimit:10}.N{stroke-width:.25}.O{fill:#5a4a42}.P{fill:#68a336}.Q{stroke-width:4}.R{stroke:#5a4a42}]]></style><text font-size="145" font-family="SofiaProMedium,Sofia Pro" class="O R"><tspan class="B M N" x="320.32" y="104.82">NET</tspan><tspan class="C M N" x="795.71" y="104.82">T</tspan><tspan class="D M N" x="942.58" y="104.82">O</tspan><tspan class="E M N" x="1122.5" y="104.82">Y</tspan><tspan class="F M N" x="1276.62" y="104.82">A</tspan><tspan class="B M N" x="1437.69" y="104.82">G</tspan><tspan x="1618.2" y="104.82" class="M N">E</tspan></text><path d="M505.38 381.1c-40.68 0-70.28-34.33-70.28-74s29.6-74 70.28-74c39.32 0 68.27 32.1 70.15 70h87.75c-1.95-87.8-69.4-151.9-157.9-151.9-89.8 0-158 66-158 155.85S415.57 463 505.38 463c80.06 0 142.9-52.47 155.6-127.46h-90.66c-10.26 26.3-34.5 45.56-64.95 45.56zm-189.66-70.26c0-88.23-65-160.1-154.8-160.1-86.12 0-153.74 72.38-153.74 157.45 0 85.58 69.72 155.32 155.32 155.32 66 0 117.8-42.8 143.17-101.43h-89.8c-14.26 18-29.6 27.46-53.36 27.46-34.35 0-63.4-20.6-68.68-55.46H313.6a115.76 115.76 0 0 0 2.12-23.25zM94.88 274.9c6.86-31.7 34.86-50.2 66.56-50.2s59.7 18.5 66.56 50.2z" class="O"/><path d="M1298.38 176.12c-19-15.85-50.2-25.36-75-25.36-35.4 0-61.3 11.1-79.78 41.2h-1.06V160.8h-81.9V454h87.7V294.46c0-34.87 9.5-61.3 50.2-61.3 39.62 0 46 28 46 60.76V454h87.7V270.68c-.06-34.34-5.87-71.32-33.87-94.56zm388.84 134.72c0-88.23-65-160.1-154.8-160.1-86.1 0-153.74 72.38-153.74 157.45 0 85.58 69.74 155.32 155.32 155.32 66 0 117.8-42.8 143.17-101.43h-89.8c-14.26 18-29.58 27.46-53.36 27.46-34.33 0-63.4-20.6-68.68-55.46h219.78a115.76 115.76 0 0 0 2.12-23.25zm-220.84-35.93c6.87-31.7 34.87-50.2 66.56-50.2s59.7 18.5 66.57 50.2zM1913 228.68v-69.36h-72V63.06h-87.7v96.26h-55.53v69.36h55.53v154.26a71.07 71.07 0 0 0 71.03 71.06H1913v-71.06h-56.64a15.38 15.38 0 0 1-15.36-15.38V228.68z" class="P"/><path d="M1005,303.18H932a85.17,85.17,0,0,0-169.58,0h-73a158,158,0,0,1,315.53,0Z" class="O"/><circle cx="847.19" cy="311.22" r="76.65" class="P"/><g fill="#fff"><circle cx="847.19" cy="311.22" r="26.88"/><circle cx="847.19" cy="260.82" r="9.01"/><circle cx="891.98" cy="335.54" r="9.01"/><circle cx="803.02" cy="335.54" r="9.01"/></g><path d="M924.17 349.28l1.64-3.5 1.48-3.6s55.26 8 64.42 14.67.73 18.24.73 18.24-2.85 14.05-13.94 11.78-54.33-37.6-54.33-37.6zm-19.73 25.84l2.85-2.65 2.7-2.77s48.23 28.14 54.24 37.73-6.16 17.2-6.16 17.2-7.9 12-17.34 5.7-36.3-55.2-36.3-55.2zm-27.96 16.56l3.62-1.4 3.56-1.55s34.18 44.16 36.15 55.3-12.15 13.63-12.15 13.63-11.8 8.12-18.2-1.2-12.97-64.78-12.97-64.78zm-32.14 4.88l3.88.07 3.9-.1s15.14 53.74 12.8 64.8-16.36 8.1-16.36 8.1-14 3.1-16.44-7.95 12.24-64.92 12.24-64.92zm-31.62-7.5l3.57 1.52 3.64 1.35s-6.1 55.5-12.4 64.9-18.2 1.37-18.2 1.37-14.14-2.36-12.26-13.52 35.67-55.6 35.67-55.6zm-26.52-18.82L789 373l2.86 2.62s-26.48 49.16-35.86 55.5-17.4-5.55-17.4-5.55-12.22-7.5-6.3-17.14 53.9-38.2 53.9-38.2zm-17.5-27.37l1.5 3.58 1.67 3.5s-42.93 35.7-54 38.06-14-11.67-14-11.67-8.53-11.52.58-18.24 64.24-15.23 64.24-15.23z" class="P"/><g class="O"><circle cx="46.19" cy="563.87" r="46.19"/><circle cx="193.46" cy="563.87" r="46.19"/><circle cx="341.11" cy="563.87" r="46.19"/><circle cx="486.61" cy="563.87" r="46.19"/><circle cx="637.36" cy="563.87" r="46.19"/><circle cx="787.05" cy="563.87" r="46.19"/></g><g class="P"><circle cx="938.12" cy="563.87" r="46.19"/><circle cx="1095.12" cy="563.87" r="46.19"/><circle cx="1247.99" cy="563.87" r="46.19"/><circle cx="1406.41" cy="563.87" r="46.19"/><circle cx="1560.67" cy="563.87" r="46.19"/><circle cx="1718.29" cy="563.87" r="46.19"/><circle cx="1873.81" cy="563.87" r="46.19"/></g><path d="M224.36 51.6a25.65 25.65 0 0 0-7.26 1.06 215.41 215.41 0 0 0-51 16.43l-74.9 33.63h133.15a25.56 25.56 0 0 0 0-51.12z" fill="#00aeef"/><path d="M80.3 870.58l-63.45-93.74v93.74H6.18V764H20.6l59.7 88.4V764H91v106.58zm55.52-35.9c.87 15.58 14.57 28 30.72 28 12 0 23.08-7.2 27.55-18h11.1c-5.05 15-20.48 27.83-38.36 27.83a41.24 41.24 0 0 1-41.68-41.67 40.57 40.57 0 0 1 41-41c23.36 0 41.1 16.87 41.1 44.85zm30.14-35c-15 0-27 10.24-29.85 25.38h60.43c-3.6-15.76-15.3-25.42-30.54-25.42zm89.84 1.7v69.22h-10.67v-69.22h-17v-9.66h17V764h10.67v27.7h17.74v9.66zm66.06 0v69.22H311.2v-69.22h-17v-9.66h17V764h10.67v27.7h17.74v9.66zm81.34 71.1c-24.52 0-42.26-17.6-42.26-41.82 0-23.07 18-40.8 41.4-40.8 23.65 0 41 17.45 41 41.53-.04 23.65-17.06 41.1-40.13 41.1zm-.87-72.82c-17.45 0-30.57 13.4-30.57 31.3 0 18.46 13 31.73 31.15 31.73 17.16 0 29.56-13.13 29.56-31.15 0-18.32-12.83-31.87-30.14-31.87zm91.72 98.64h-11.4L495.5 868l-30.58-76.3h11.68l24.95 62.87 26.68-62.87h11.4zm139.17-27.7v-13.85c-8.36 11.25-17 15.72-30.43 15.72-24.23 0-42.25-17.6-42.25-41.1s17.88-41.53 41.53-41.53c13.7 0 23.36 4.9 31.15 15.86v-14h10.67v78.88zm-30.86-71a31 31 0 0 0-31 31c0 18 13.7 32 31.6 32 17 0 30.28-14 30.28-31.87-.01-17.53-13.56-31.08-30.87-31.08zm148.4 87.87c-6.78 8.94-18.32 14.13-32 14.13-19.9 0-33.9-10.1-39.66-28.55h10.4c8.07 14.28 15.7 18.75 29 18.75 19 0 29-11.1 29-31.87v-5.34c-6.2 12.1-16 17.88-30.14 17.88-23.08 0-41.1-17.88-41.1-41 0-23.8 17.3-41.68 40.38-41.68 13.26 0 22.93 5 30.86 15.86v-14h10.67v64.75c-.05 15.5-2.07 23.86-7.4 31.07zm-33.6-87.82c-17.45 0-30.14 13-30.14 31 0 18.32 13 32 30.3 32s30.14-14 30.14-32.45c0-17.18-13.27-30.55-30.3-30.55zm83.94 35.04c.86 15.58 14.56 28 30.7 28 12 0 23.08-7.2 27.55-18h11.1c-5.05 15-20.48 27.83-38.36 27.83a41.24 41.24 0 0 1-41.68-41.67 40.57 40.57 0 0 1 41-41c23.36 0 41.1 16.87 41.1 44.85zm30.14-35c-15 0-27 10.24-29.86 25.38h60.43c-3.6-15.76-15.3-25.42-30.57-25.42z" class="M O Q R"/><path d="M969.1 834.67c.86 15.58 14.56 28 30.7 28 12 0 23.08-7.2 27.55-18h11.1c-5 15-20.48 27.83-38.36 27.83a41.24 41.24 0 0 1-41.68-41.67 40.57 40.57 0 0 1 41-41c23.36 0 41.1 16.87 41.1 44.85zm30.14-35c-15 0-27 10.24-29.86 25.38h60.43c-3.6-15.76-15.3-25.42-30.57-25.42zm113.06 72.78c-24.23 0-43-18-43-41.53 0-22.93 18.6-41.1 42.26-41.1 17.73 0 32.88 9.95 39.22 25.8h-12c-6-10.38-15.72-16-27.4-16-17.6 0-31.3 13.84-31.3 31.58a31.39 31.39 0 0 0 31.73 31.44c11.1 0 18.74-4.33 27-15.3h12.2c-9.57 18.03-22.4 25.1-38.7 25.1zm109.7 0c-24.5 0-42.25-17.6-42.25-41.82 0-23.07 18-40.8 41.4-40.8 23.65 0 41 17.45 41 41.53-.01 23.65-17.02 41.1-40.14 41.1zm-.86-72.82c-17.45 0-30.57 13.4-30.57 31.3 0 18.46 13 31.73 31.15 31.73 17.16 0 29.56-13.13 29.56-31.15.04-18.32-12.8-31.87-30.1-31.87zm73.3 70.95V764h10.67v106.58zm85.23 1.87c-24.5 0-42.25-17.6-42.25-41.82 0-23.07 18-40.8 41.4-40.8 23.65 0 41 17.45 41 41.53-.05 23.65-17.07 41.1-40.14 41.1zm-.86-72.82c-17.45 0-30.58 13.4-30.58 31.3 0 18.46 13 31.73 31.15 31.73 17.16 0 29.57-13.13 29.57-31.15.05-18.32-12.84-31.87-30.14-31.87zm144.8 87.82c-6.78 8.94-18.32 14.13-32 14.13-19.9 0-33.9-10.1-39.66-28.55h10.4c8.07 14.28 15.72 18.75 29 18.75 19 0 29-11.1 29-31.87v-5.34c-6.2 12.1-16 17.88-30.14 17.88-23.07 0-41.1-17.88-41.1-41 0-23.8 17.3-41.68 40.38-41.68 13.27 0 22.93 5 30.86 15.86v-14H1531v64.75c0 15.5-2.07 23.86-7.4 31.07zm-33.6-87.82c-17.45 0-30.14 13-30.14 31 0 18.32 13 32 30.28 32s30.14-14 30.14-32.45c0-17.18-13.28-30.55-30.28-30.55zm76.3-16.63v-18.13h10.7V783zm0 87.54V791.7h10.7v78.88zm115.5 27.73V857c-6.92 10.1-17.6 15.43-30.72 15.43-23.5 0-41.82-18-41.82-41.24s18-41.4 41.53-41.4c13.4 0 24.38 5.34 31 15.43V791.7h10.67v106.57zm-30.57-98.64c-17.74 0-31.15 13.55-31.15 31.72 0 17.74 13.4 31.3 31.15 31.3a30.93 30.93 0 0 0 31.29-31c0-18.32-13.4-32.02-31.3-32.02zm137.57 70.95v-12.26c-5.34 9.8-13.13 14.13-25.4 14.13-20 0-33.45-10.67-33.45-38.2V791.7h10.67v42.54c0 20 8.36 28.4 23.65 28.4 14.42 0 24.52-8.94 24.52-30.43v-40.5h10.67v78.88zm53.65-35.9c.87 15.58 14.57 28 30.72 28 12 0 23.07-7.2 27.54-18h11.1c-5 15-20.48 27.83-38.36 27.83a41.24 41.24 0 0 1-41.68-41.67 40.57 40.57 0 0 1 41-41c23.36 0 41.1 16.87 41.1 44.85zm30.14-35c-15 0-27 10.24-29.85 25.38h60.43c-3.6-15.76-15.3-25.42-30.58-25.42z" stroke="#68a336" class="P M Q"/><path d="M74.24 1033.8v-14.28c-7.93 11.4-16.87 16.15-30 16.15-24.37 0-43-17.88-43-41.24 0-23.5 18.17-41.4 42-41.4a39.26 39.26 0 0 1 31 14.42V927.2h10.68v106.58zM43 962.85A30.87 30.87 0 0 0 12.09 994 31.34 31.34 0 0 0 44 1025.87c16.87 0 30.72-14.42 30.72-31.72A31.55 31.55 0 0 0 43 962.85zm98 35.05c.86 15.57 14.56 28 30.7 28 12 0 23.08-7.2 27.55-18h11.1c-5 15-20.47 27.83-38.36 27.83A41.24 41.24 0 0 1 130.35 994a40.55 40.55 0 0 1 41-41c23.36 0 41.1 16.87 41.1 44.85zm30.14-35c-15 0-27 10.24-29.85 25.38h60.42c-3.58-15.76-15.27-25.43-30.55-25.43zM348 964.58v69.23h-10.7v-69.23h-17v-9.66h17v-27.7H348v27.7h17.7v9.66zm124.85 69.22V1020c-8.36 11.25-17 15.72-30.43 15.72-24.22 0-42.25-17.6-42.25-41.1s17.88-41.53 41.53-41.53c13.7 0 23.36 4.9 31.15 15.86v-14h10.67v78.9zm-30.86-71a31 31 0 0 0-31 31c0 18 13.7 32 31.58 32 17 0 30.28-14 30.28-31.87 0-17.53-13.55-31.1-30.85-31.1zm131.38 72.88c-13.12 0-23.8-5.34-30.72-15.43v41.24H532V954.92h10.67v13.56c6.64-10 17.6-15.43 31-15.43 23.5 0 41.53 18 41.53 41.53-.01 23.07-18.32 41.1-41.83 41.1zm-.14-72.83a31 31 0 0 0-31.3 31.15c0 18.17 13.4 31.87 31.44 31.87 17.6 0 31-13.55 31-31.3.01-18.17-13.37-31.73-31.14-31.73zm87.4-16.58V928.1h10.67v18.17zm0 87.54v-78.9h10.67v78.9zm78.02 1.87c-15.14 0-25.38-9.8-25.38-25.1h10.53c0 9.66 6.05 15.28 14.85 15.28 7.64 0 13.27-5.76 13.27-13.7s-3.9-10.52-15.3-15.17c-11.1-4.47-11.4-4.6-14.56-7.64a18.7 18.7 0 0 1-5.92-14.13c0-12.84 9.52-22.2 22.36-22.2s22.2 8.65 22.2 21.34h-10.8c0-7.5-4.62-11.54-11.54-11.54A11.33 11.33 0 0 0 727 974.25c0 4.6 2.3 7.93 7.2 10.38 2.3 1.15 2.88 1.44 14.85 6.35 9.23 3.9 13.7 10.52 13.7 20.18-.04 14.42-10 24.52-24.12 24.52zm145.22-37.78c.87 15.57 14.57 28 30.72 28 12 0 23.07-7.2 27.54-18h11.1c-5.05 15-20.48 27.83-38.36 27.83A41.25 41.25 0 0 1 873.19 994a40.56 40.56 0 0 1 41-41c23.36 0 41.1 16.87 41.1 44.85zm30.14-35c-15 0-27 10.24-29.85 25.38h60.42C941 972.52 929.3 962.85 914 962.85zm103 1.68v69.23h-10.7v-69.23h-17v-9.66h17v-27.7h10.7v27.7h17.74v9.66zm235.47 69.22v-45.7c0-17.74-7.93-25.38-20.9-25.38-12.55 0-21.63 7.5-21.63 25.38v45.72h-10.67v-46c0-17.6-9.23-24.95-21.35-24.95-13.26 0-21.2 9.23-21.2 24.95v46H1146v-78.9h10.67V964c6.06-7.93 12.26-11 22.2-11 11.83 0 19.62 4.6 25.82 15.14 6.63-10.53 15.14-15.3 27.4-15.3 18 0 31 11.1 31 34v46.87zm66.77-35.9c.87 15.57 14.57 28 30.72 28 12 0 23.07-7.2 27.54-18h11.1c-5 15-20.48 27.83-38.36 27.83a41.25 41.25 0 0 1-41.68-41.73 40.56 40.56 0 0 1 41-41c23.36 0 41.1 16.87 41.1 44.85zm30.14-35c-15 0-27 10.24-29.85 25.38H1380c-3.65-15.76-15.33-25.43-30.62-25.43zm145.08 70.9v-12.26c-5.33 9.8-13.12 14.13-25.38 14.13-20 0-33.46-10.67-33.46-38.22V954.9h10.68v42.54c0 20 8.36 28.4 23.65 28.4 14.42 0 24.5-8.94 24.5-30.42V954.9h10.67v78.9zm100.66 1.88c-13 0-24.22-5.62-30.86-15.43v13.56h-10.67V927.23h10.67v41.25c6.78-10 17.74-15.43 31-15.43 23.36 0 41.53 18 41.53 41.24.01 23.65-17.87 41.4-41.67 41.4zm-.14-72.83a31 31 0 0 0-31.44 31.15c0 17.45 14 31.87 31.3 31.87 17.73 0 31.14-13.7 31.14-31.87.02-17.73-13.26-31.15-30.98-31.15zm87.25 70.95V927.23h10.67v106.58zm66.77-35.9c.86 15.57 14.56 28 30.72 28 12 0 23.07-7.2 27.54-18h11.1c-5 15-20.48 27.83-38.36 27.83a41.24 41.24 0 0 1-41.68-41.73 40.55 40.55 0 0 1 41-41c23.37 0 41.1 16.87 41.1 44.85zm30.14-35c-15 0-27 10.24-29.85 25.38h60.42c-3.6-15.76-15.28-25.43-30.57-25.43zm105.13 72.78c-15.14 0-25.38-9.8-25.38-25.1h10.53c0 9.66 6 15.28 14.85 15.28 7.64 0 13.27-5.76 13.27-13.7s-3.9-10.52-15.3-15.14c-11.1-4.47-11.4-4.6-14.56-7.64a18.7 18.7 0 0 1-5.92-14.13c0-12.84 9.52-22.2 22.36-22.2 12.7 0 22.2 8.65 22.2 21.34h-10.82c0-7.5-4.6-11.54-11.54-11.54a11.33 11.33 0 0 0-11.39 11.4c0 4.6 2.3 7.93 7.2 10.38 2.3 1.15 2.88 1.44 14.85 6.35 9.23 3.9 13.7 10.52 13.7 20.18 0 14.42-9.95 24.52-24.08 24.52z" class="O R M Q"/><path d="M1008.95 762.82l-42.5 29.93-5.17-7.33 32.1-22.6h15.57z" stroke="#68a336" class="M P Q"/></svg>