<svg xmlns="http://www.w3.org/2000/svg" viewBox="0 0 330.01 330.01"><circle cx="165" cy="165" r="165" fill="#00aeef"/><path d="M75.88 58h88.93a13.7 13.7 0 0 0-.17 1.57q0 36.66 0 73.33c0 .57.1 1.14.16 1.83h86.44c2.7 0 2.7 0 2.7 2.7q0 61 0 122c0 .93.1 1.85.17 2.77H75.88l.17-2.37q0-99.7 0-199.43c0-.8-.1-1.58-.17-2.4zm63.45 191.45v-25.58H101v25.62zm89.32 0v-25.58h-38.37v25.62zM88.2 70.75v25.62h25.6V70.75zm63.9 25.62V70.75h-25.6v25.62zm-63.9 38.28h25.6V109H88.2zM126.48 109v25.62h25.6V109zM88.2 172.93h25.6V147.3H88.2zm63.9-25.62h-25.6v25.62h25.6zm51 25.62V147.3h-25.57v25.62zm12.67-25.62v25.62h25.62V147.3zM88.2 185.6v25.62h25.6V185.6zm38.28 25.62h25.6V185.6h-25.6zm51-.07h25.62V185.6h-25.58zm38.28.07h25.62V185.6H215.8z" fill="#fff"/></svg>