<?xml version="1.0" encoding="UTF-8" standalone="no"?>
<svg
   xmlns:dc="http://purl.org/dc/elements/1.1/"
   xmlns:cc="http://creativecommons.org/ns#"
   xmlns:rdf="http://www.w3.org/1999/02/22-rdf-syntax-ns#"
   xmlns:svg="http://www.w3.org/2000/svg"
   xmlns="http://www.w3.org/2000/svg"
   xmlns:sodipodi="http://sodipodi.sourceforge.net/DTD/sodipodi-0.dtd"
   xmlns:inkscape="http://www.inkscape.org/namespaces/inkscape"
   viewBox="0 0 231.04269 232.63999"
   version="1.1"
   id="svg14"
   sodipodi:docname="communications-icon.svg"
   width="231.04269"
   height="232.64"
   inkscape:version="0.92.4 (fd57863, 2020-04-02)">
  <metadata
     id="metadata20">
    <rdf:RDF>
      <cc:Work
         rdf:about="">
        <dc:format>image/svg+xml</dc:format>
        <dc:type
           rdf:resource="http://purl.org/dc/dcmitype/StillImage" />
      </cc:Work>
    </rdf:RDF>
  </metadata>
  <defs
     id="defs18" />
  <sodipodi:namedview
     pagecolor="#ffffff"
     bordercolor="#666666"
     borderopacity="1"
     objecttolerance="10"
     gridtolerance="10"
     guidetolerance="10"
     inkscape:pageopacity="0"
     inkscape:pageshadow="2"
     inkscape:window-width="1600"
     inkscape:window-height="872"
     id="namedview16"
     showgrid="false"
     inkscape:zoom="1.0113463"
     inkscape:cx="212.65929"
     inkscape:cy="17.088746"
     inkscape:window-x="0"
     inkscape:window-y="0"
     inkscape:window-maximized="1"
     inkscape:current-layer="svg14" />
  <g
     id="g6"
     style="fill:#ffffff"
     transform="translate(-49.637303,-47.91)">
    <path
       d="m 103.37,198.7 c -3.36,0.05 -6.46,-1.07 -9.56,-2.17 -5.2,-1.85 -10.28,-3.88 -14.8,-7.1 A 90.09,90.09 0 0 1 63.87,175.57 c -3.45,-3.92 -6.68,-8 -8.73,-12.88 a 131.41,131.41 0 0 1 -4.81,-13.13 c -1.55,-5.12 -0.37,-10 2.26,-14.56 0.12,-0.2 0.26,-0.4 0.36,-0.6 2,-3.94 5.32,-5.8 9.57,-6.28 0.17,0 0.35,0 0.52,-0.07 2.72,-0.3 2.85,-0.17 4,1.78 1.82,3.13 3.5,6.33 5.3,9.47 0.68,1.2 1.5,2.32 2.23,3.5 1.1,1.78 1.1,2.7 -0.36,4.2 -1.46,1.5 -2.94,2.6 -4.4,3.92 l -2.55,2.3 a 2.79,2.79 0 0 0 -0.61,3.67 q 1.13,2.1 2.37,4.14 a 49.84,49.84 0 0 0 19.13,18.85 l 3.62,2 a 2.66,2.66 0 0 0 3.49,-0.68 c 1.08,-1.16 2.1,-2.38 3.16,-3.57 1.06,-1.19 1.9,-2.24 3,-3.26 1.6,-1.53 2.5,-1.56 4.4,-0.44 q 5.33,3.14 10.65,6.24 l 2.9,1.66 a 2.4,2.4 0 0 1 1.23,2.7 c -0.27,1.53 -0.6,3 -0.93,4.56 a 8.24,8.24 0 0 1 -3.42,5 23.18,23.18 0 0 1 -10.31,4.52 c -0.93,0.1 -1.73,0.08 -2.56,0.12 z M 222,136.83 h 47.1 a 1.62,1.62 0 0 0 0.34,0.1 l 4,0.15 a 5.48,5.48 0 0 1 3.05,1.1 c 0.2,0.14 0.4,0.3 0.67,0.5 l -1.73,1.74 -5.1,5.3 -2.33,2.34 -2.65,2.72 -12.48,12.73 -3.65,3.77 -3.66,3.77 a 1.84,1.84 0 0 1 -0.2,0.19 l -0.23,-0.2 -3,-3 -14.65,-14.86 q -2,-2 -4,-4 l -4,-4 -4,-4.15 -2.14,-2.18 c -0.15,-0.15 -0.1,-0.27 0,-0.37 a 5.21,5.21 0 0 1 0.55,-0.36 6.45,6.45 0 0 1 2.4,-1 l 2.4,-0.15 h 2.9 a 1.46,1.46 0 0 0 0.43,-0.13 z m -12.5,8.57 a 1.33,1.33 0 0 0 0.1,-0.28 c 0,-0.27 0,-0.54 0.08,-0.84 l 1.15,1.1 3.07,3.14 13.44,13.63 1.84,1.83 a 7.29,7.29 0 0 1 -0.51,0.63 q -5,5.32 -10.1,10.64 l -3.52,3.64 -2.32,2.36 -2.37,2.35 c -0.22,0.23 -0.4,0.17 -0.44,-0.1 a 9.72,9.72 0 0 1 -0.24,-1.68 l -0.1,-5.43 a 1.61,1.61 0 0 0 -0.1,-0.36 z m 4.9,43.34 c 0.1,-0.1 0.24,-0.18 0.34,-0.3 l 5,-5.3 8.4,-8.8 q 1.6,-1.67 3.22,-3.3 l 2.37,-2.34 0.64,0.6 3.6,3.64 2.63,2.62 3.22,3 a 2.48,2.48 0 0 0 3.08,-0.08 l 3.28,-3.16 3.77,-3.8 2.73,-2.65 0.27,0.27 q 1.77,1.9 3.53,3.8 l 4.85,5.26 5.5,5.88 3.7,3.73 c 0.37,0.37 0.8,0.67 1.3,1.1 a 12.34,12.34 0 0 1 -1.8,0.57 35.78,35.78 0 0 1 -5.67,0.25 l -45.8,0.07 c -1.27,0 -2.54,0 -3.8,-0.08 a 28.49,28.49 0 0 1 -3,-0.32 6.42,6.42 0 0 1 -1.34,-0.5 z m 46.78,-24.54 3.56,-3.64 4.66,-4.83 4.84,-4.95 2.37,-2.42 2.3,-2.37 1.62,-1.6 0.15,1.6 v 29.78 l -0.08,4.58 c 0,0.87 -0.12,1.74 -0.22,2.6 -0.1,0.86 -0.3,1 -0.95,0.46 a 10.59,10.59 0 0 1 -1.19,-1 q -4.4,-4.58 -8.77,-9.16 l -3.12,-3.36 -1.9,-2.1 z m -93.63,-44.26 h -1.18 a 0.19,0.19 0 0 0 -0.1,0 c -0.6,0 -1.2,0 -1.8,-0.08 l -1.78,-0.15 -2,-0.3 -2.3,-0.5 a 28.79,28.79 0 0 1 -3.93,-1.22 l -2.74,-1.15 -1.8,-0.92 -2.3,-1.35 a 30.64,30.64 0 0 1 -3.64,-2.67 l -2,-1.76 -2.4,-2.57 a 16.26,16.26 0 0 1 -1.06,-1.3 l -1.9,-2.72 -1.4,-2.4 a 28.83,28.83 0 0 1 -1.86,-4.13 l -1.15,-3.6 c -0.27,-1 -0.45,-2 -0.64,-3 l -0.33,-2.2 -0.14,-1.65 -0.1,-1.9 v -2.24 c 0,-0.53 0.07,-1.06 0.1,-1.6 l 0.2,-1.75 0.36,-2 a 33.22,33.22 0 0 1 1.4,-4.81 34.16,34.16 0 0 1 2.36,-5.28 l 1.34,-2.25 a 25.88,25.88 0 0 1 2.14,-3 l 2.07,-2.4 c 0.57,-0.6 1.2,-1.18 1.82,-1.75 l 1.78,-1.52 a 32.08,32.08 0 0 1 3.17,-2.27 36.15,36.15 0 0 1 4.63,-2.48 34.41,34.41 0 0 1 3.89,-1.46 32.84,32.84 0 0 1 3.76,-0.95 l 2.4,-0.4 2.23,-0.22 1.9,-0.08 h 1.2 l 1.8,0.07 c 0.4,0 0.8,0.06 1.22,0.1 l 2,0.26 2.57,0.5 a 28.17,28.17 0 0 1 3.93,1.17 l 3.08,1.28 1.76,0.9 2.3,1.35 a 29.75,29.75 0 0 1 3.64,2.78 l 2,1.83 2.1,2.25 a 19.42,19.42 0 0 1 1.32,1.53 l 1.86,2.66 1.35,2.27 1,2 1.32,3.26 a 28.29,28.29 0 0 1 1.05,3.64 l 0.68,3.85 0.2,2 0.07,1.8 v 1.15 l -0.08,1.76 c 0,0.4 0,0.78 -0.08,1.16 l -0.3,2.1 -0.5,2.57 a 27.48,27.48 0 0 1 -1.1,3.69 l -1.37,3.34 -1.53,2.9 a 28.17,28.17 0 0 1 -2.62,3.86 l -2.4,2.78 a 15,15 0 0 1 -1.21,1.18 l -2,1.76 -1.88,1.45 a 31.4,31.4 0 0 1 -4,2.47 l -2.33,1.14 -2.84,1.12 a 29.36,29.36 0 0 1 -4,1.13 l -2,0.37 -1.66,0.23 -1.83,0.18 c -0.6,0.05 -1,0 -1.47,0 a 0.55,0.55 0 0 0 -0.22,0.14 z m 31.8,-37.73 c 0,-0.34 -0.06,-0.66 -0.1,-1 l -0.26,-2.24 -0.58,-2.9 c -0.24,-0.95 -0.6,-2.1 -1,-3.15 a 28,28 0 0 0 -1.78,-4 32.23,32.23 0 0 0 -2.23,-3.64 c -0.08,-0.12 -0.13,-0.13 -0.24,0 l -1.3,0.82 a 38.82,38.82 0 0 1 -4.33,2.38 l -2.82,1.26 c -0.2,0.08 -0.2,0.15 -0.14,0.32 l 0.9,3.1 0.63,3 0.33,2 0.2,1.8 0.15,2 a 2.21,2.21 0 0 0 0,0.35 z m -64.8,0 H 147 a 1.19,1.19 0 0 0 0.05,-0.26 l 0.16,-2.16 c 0,-0.5 0.08,-1 0.15,-1.5 l 0.3,-1.8 0.66,-3.2 1,-3.35 c 0,-0.13 0,-0.2 -0.12,-0.25 l -3.1,-1.4 -2.26,-1.2 -3,-1.8 c -0.3,-0.2 -0.3,-0.2 -0.5,0.1 l -0.1,0.1 a 30.31,30.31 0 0 0 -2.72,4.76 l -1.13,2.73 a 27.69,27.69 0 0 0 -1.1,3.78 l -0.4,2.1 -0.2,1.53 c 0,0.28 0,0.56 -0.08,0.84 -0.08,0.28 0,0.6 -0.03,0.93 z M 147,85.73 h -12.4 a 0.35,0.35 0 0 0 0,0.14 c 0,0.42 0.06,0.84 0.1,1.25 l 0.22,1.92 0.58,2.8 1,3.23 1.22,2.92 a 19.65,19.65 0 0 0 1,1.93 l 1.76,2.8 a 0.13,0.13 0 0 0 0.21,0 l 1.15,-0.74 3.23,-1.85 2,-1 2.06,-0.9 c 0.1,0 0.14,-0.1 0.1,-0.2 a 11.21,11.21 0 0 1 -0.34,-1.08 l -0.87,-3.5 -0.4,-2.1 -0.22,-1.6 -0.22,-1.92 -0.07,-1.5 c -0.05,-0.15 -0.07,-0.32 -0.13,-0.6 z m 39.84,0 c 0,0.63 -0.08,1.23 -0.13,1.84 l -0.15,1.8 -0.3,2.1 -0.64,3.2 -0.93,3.35 c 0,0.16 0,0.22 0.13,0.28 l 3.07,1.38 c 0.6,0.27 1.17,0.6 1.75,0.9 l 1.2,0.68 2.37,1.47 a 0.12,0.12 0 0 0 0.2,0 l 0.28,-0.4 1.68,-2.74 a 22.26,22.26 0 0 0 1.65,-3.49 l 1.07,-3.1 a 22.1,22.1 0 0 0 0.55,-2.2 l 0.36,-1.93 0.16,-1.28 0.1,-0.9 c 0.02,-0.3 0,-0.6 0.05,-0.92 z m -21.7,9.08 v -9.07 h -14.6 a 42,42 0 0 0 2,11.28 47.83,47.83 0 0 1 12.63,-2.21 z m 16.2,2.2 a 42,42 0 0 0 2,-11.28 H 168.7 v 9.07 a 48.74,48.74 0 0 1 6.39,0.67 47.11,47.11 0 0 1 6.25,1.54 z M 165.2,73.15 164.74,73.1 c -0.6,0 -1.18,-0.07 -1.77,-0.12 l -1.6,-0.15 -2.45,-0.36 -2.87,-0.6 -3.23,-0.87 c -0.14,0 -0.2,0 -0.23,0.12 l -0.63,2.13 a 36.45,36.45 0 0 0 -1,5 l -0.3,2.64 v 1.33 h 14.53 z m 18.14,9.06 c 0,-0.28 0,-0.55 -0.05,-0.8 l -0.2,-2.05 -0.26,-2 -0.52,-2.54 -1,-3.66 c 0,-0.13 -0.08,-0.18 -0.24,-0.13 l -1.66,0.48 -2.55,0.6 -2.2,0.43 -1.9,0.27 -1.5,0.15 -2,0.15 -0.6,0.05 v 9.06 z M 165.2,98.33 A 40.15,40.15 0 0 0 159,99 a 43.27,43.27 0 0 0 -5.22,1.3 42.09,42.09 0 0 0 11.37,15.7 v 0 z m 3.53,0 V 116 h 0.05 a 42.12,42.12 0 0 0 11.39,-15.7 43.73,43.73 0 0 0 -11.44,-1.97 z M 153.9,67.66 a 43.58,43.58 0 0 0 5.58,1.34 45.5,45.5 0 0 0 5.71,0.61 V 52.24 A 42.15,42.15 0 0 0 153.9,67.66 Z m 14.82,-15.43 v 17.4 a 43.84,43.84 0 0 0 11.3,-2 42,42 0 0 0 -11.3,-15.39 z m -8.82,0.15 v -0.07 a 32.46,32.46 0 0 0 -17.08,10 l 0.1,0.08 1.46,0.93 a 42.92,42.92 0 0 0 4,2.11 l 2.14,0.94 c 0.13,0.06 0.17,0 0.22,-0.1 l 1.13,-2.47 a 34,34 0 0 1 2.07,-3.81 l 2.1,-3.07 1.7,-2.16 1.8,-2 z m 31.26,10 a 32.23,32.23 0 0 0 -17.12,-10 1.58,1.58 0 0 0 0.26,0.36 l 0.94,1 1.64,1.94 2.18,2.94 1.44,2.28 1.5,2.7 c 0.5,0.9 0.85,1.83 1.27,2.75 0.05,0.1 0.08,0.16 0.2,0.1 l 2.55,-1.14 3.17,-1.7 z m -48.4,43.2 a 32.27,32.27 0 0 0 16.72,10 46.49,46.49 0 0 1 -9,-14 44.51,44.51 0 0 0 -7.72,4 z m 40.7,-4.06 a 46.3,46.3 0 0 1 -9,14 32.3,32.3 0 0 0 16.72,-10 44.18,44.18 0 0 0 -7.72,-4 z"
       id="path2"
       inkscape:connector-curvature="0" />
    <path
       d="M 170.7,252.24 161.13,242 142.45,252.2 163,230.43 l 9.8,10.2 18.44,-10.2 z M 167,205.38 c -20.75,0 -37.58,15.58 -37.58,34.8 a 33.85,33.85 0 0 0 14,27.1 v 13.27 l 12.8,-7 A 40.2,40.2 0 0 0 167,275 c 20.75,0 37.58,-15.58 37.58,-34.8 0,-19.22 -16.88,-34.82 -37.58,-34.82 z"
       id="path4"
       inkscape:connector-curvature="0"
       style="fill-rule:evenodd" />
  </g>
  <g
     stroke-miterlimit="10"
     id="g12"
     style="fill:none;stroke:#ffffff;stroke-width:5;stroke-miterlimit:10"
     transform="translate(-49.637303,-47.91)">
    <path
       d="m 82.63,82.57 164.6,164.6"
       id="path8"
       inkscape:connector-curvature="0" />
    <path
       d="M 82.47,247.5 247.37,82.58"
       id="path10"
       inkscape:connector-curvature="0" />
  </g>
</svg>
