<svg xmlns="http://www.w3.org/2000/svg" viewBox="0 0 330.01 330.01"><g fill="#fff"><path d="M103.37 198.7c-3.36.05-6.46-1.07-9.56-2.17-5.2-1.85-10.28-3.88-14.8-7.1a90.09 90.09 0 0 1-15.14-13.86c-3.45-3.92-6.68-8-8.73-12.88a131.41 131.41 0 0 1-4.81-13.13c-1.55-5.12-.37-10 2.26-14.56.12-.2.26-.4.36-.6 2-3.94 5.32-5.8 9.57-6.28.17 0 .35 0 .52-.07 2.72-.3 2.85-.17 4 1.78 1.82 3.13 3.5 6.33 5.3 9.47.68 1.2 1.5 2.32 2.23 3.5 1.1 1.78 1.1 2.7-.36 4.2s-2.94 2.6-4.4 3.92l-2.55 2.3a2.79 2.79 0 0 0-.61 3.67q1.13 2.1 2.37 4.14a49.84 49.84 0 0 0 19.13 18.85l3.62 2a2.66 2.66 0 0 0 3.49-.68c1.08-1.16 2.1-2.38 3.16-3.57s1.9-2.24 3-3.26c1.6-1.53 2.5-1.56 4.4-.44q5.33 3.14 10.65 6.24l2.9 1.66a2.4 2.4 0 0 1 1.23 2.7c-.27 1.53-.6 3-.93 4.56a8.24 8.24 0 0 1-3.42 5 23.18 23.18 0 0 1-10.31 4.52c-.93.1-1.73.08-2.56.12zM222 136.83h47.1a1.62 1.62 0 0 0 .34.1l4 .15a5.48 5.48 0 0 1 3.05 1.1c.2.14.4.3.67.5l-1.73 1.74-5.1 5.3-2.33 2.34-2.65 2.72-12.48 12.73-3.65 3.77-3.66 3.77a1.84 1.84 0 0 1-.2.19l-.23-.2-3-3-14.65-14.86q-2-2-4-4l-4-4-4-4.15-2.14-2.18c-.15-.15-.1-.27 0-.37a5.21 5.21 0 0 1 .55-.36 6.45 6.45 0 0 1 2.4-1l2.4-.15h2.9a1.46 1.46 0 0 0 .43-.13zm-12.5 8.57a1.33 1.33 0 0 0 .1-.28c0-.27 0-.54.08-.84l1.15 1.1 3.07 3.14 13.44 13.63 1.84 1.83a7.29 7.29 0 0 1-.51.63q-5 5.32-10.1 10.64l-3.52 3.64-2.32 2.36-2.37 2.35c-.22.23-.4.17-.44-.1a9.72 9.72 0 0 1-.24-1.68l-.1-5.43a1.61 1.61 0 0 0-.1-.36zm4.9 43.34c.1-.1.24-.18.34-.3l5-5.3 8.4-8.8q1.6-1.67 3.22-3.3l2.37-2.34.64.6 3.6 3.64 2.63 2.62 3.22 3a2.48 2.48 0 0 0 3.08-.08l3.28-3.16 3.77-3.8 2.73-2.65.27.27q1.77 1.9 3.53 3.8l4.85 5.26 5.5 5.88 3.7 3.73c.37.37.8.67 1.3 1.1a12.34 12.34 0 0 1-1.8.57 35.78 35.78 0 0 1-5.67.25l-45.8.07c-1.27 0-2.54 0-3.8-.08a28.49 28.49 0 0 1-3-.32 6.42 6.42 0 0 1-1.34-.5zm46.78-24.54l3.56-3.64 4.66-4.83 4.84-4.95 2.37-2.42 2.3-2.37 1.62-1.6.15 1.6v29.78l-.08 4.58c0 .87-.12 1.74-.22 2.6s-.3 1-.95.46a10.59 10.59 0 0 1-1.19-1q-4.4-4.58-8.77-9.16l-3.12-3.36-1.9-2.1zm-93.63-44.26h-1.18a.19.19 0 0 0-.1 0c-.6 0-1.2 0-1.8-.08l-1.78-.15-2-.3-2.3-.5a28.79 28.79 0 0 1-3.93-1.22l-2.74-1.15-1.8-.92-2.3-1.35a30.64 30.64 0 0 1-3.64-2.67l-2-1.76-2.4-2.57a16.26 16.26 0 0 1-1.06-1.3l-1.9-2.72-1.4-2.4a28.83 28.83 0 0 1-1.86-4.13l-1.15-3.6c-.27-1-.45-2-.64-3l-.33-2.2-.14-1.65-.1-1.9v-2.24c0-.53.07-1.06.1-1.6l.2-1.75.36-2a33.22 33.22 0 0 1 1.4-4.81 34.16 34.16 0 0 1 2.36-5.28l1.34-2.25a25.88 25.88 0 0 1 2.14-3l2.07-2.4c.57-.6 1.2-1.18 1.82-1.75l1.78-1.52a32.08 32.08 0 0 1 3.17-2.27 36.15 36.15 0 0 1 4.63-2.48 34.41 34.41 0 0 1 3.89-1.46 32.84 32.84 0 0 1 3.76-.95l2.4-.4 2.23-.22 1.9-.08h1.2l1.8.07c.4 0 .8.06 1.22.1l2 .26 2.57.5a28.17 28.17 0 0 1 3.93 1.17l3.08 1.28 1.76.9 2.3 1.35a29.75 29.75 0 0 1 3.64 2.78l2 1.83 2.1 2.25a19.42 19.42 0 0 1 1.32 1.53l1.86 2.66 1.35 2.27 1 2 1.32 3.26a28.29 28.29 0 0 1 1.05 3.64l.68 3.85.2 2 .07 1.8v1.15l-.08 1.76c0 .4 0 .78-.08 1.16l-.3 2.1-.5 2.57a27.48 27.48 0 0 1-1.1 3.69l-1.37 3.34-1.53 2.9a28.17 28.17 0 0 1-2.62 3.86l-2.4 2.78a15 15 0 0 1-1.21 1.18l-2 1.76-1.88 1.45a31.4 31.4 0 0 1-4 2.47l-2.33 1.14-2.84 1.12a29.36 29.36 0 0 1-4 1.13l-2 .37-1.66.23-1.83.18c-.6.05-1 0-1.47 0a.55.55 0 0 0-.22.14zm31.8-37.73c0-.34-.06-.66-.1-1l-.26-2.24-.58-2.9c-.24-.95-.6-2.1-1-3.15a28 28 0 0 0-1.78-4 32.23 32.23 0 0 0-2.23-3.64c-.08-.12-.13-.13-.24 0l-1.3.82a38.82 38.82 0 0 1-4.33 2.38l-2.82 1.26c-.2.08-.2.15-.14.32l.9 3.1.63 3 .33 2 .2 1.8.15 2a2.21 2.21 0 0 0 0 .35zm-64.8 0H147a1.19 1.19 0 0 0 .05-.26l.16-2.16c0-.5.08-1 .15-1.5l.3-1.8.66-3.2 1-3.35c0-.13 0-.2-.12-.25l-3.1-1.4-2.26-1.2-3-1.8c-.3-.2-.3-.2-.5.1l-.1.1a30.31 30.31 0 0 0-2.72 4.76l-1.13 2.73a27.69 27.69 0 0 0-1.1 3.78l-.4 2.1-.2 1.53c0 .28 0 .56-.08.84s0 .6-.03.93zM147 85.73h-12.4a.35.35 0 0 0 0 .14c0 .42.06.84.1 1.25l.22 1.92.58 2.8 1 3.23 1.22 2.92a19.65 19.65 0 0 0 1 1.93l1.76 2.8a.13.13 0 0 0 .21 0l1.15-.74 3.23-1.85 2-1 2.06-.9c.1 0 .14-.1.1-.2a11.21 11.21 0 0 1-.34-1.08l-.87-3.5-.4-2.1-.22-1.6-.22-1.92-.07-1.5c-.05-.15-.07-.32-.13-.6zm39.84 0c0 .63-.08 1.23-.13 1.84l-.15 1.8-.3 2.1-.64 3.2-.93 3.35c0 .16 0 .22.13.28l3.07 1.38c.6.27 1.17.6 1.75.9l1.2.68 2.37 1.47a.12.12 0 0 0 .2 0l.28-.4 1.68-2.74a22.26 22.26 0 0 0 1.65-3.49l1.07-3.1a22.1 22.1 0 0 0 .55-2.2l.36-1.93.16-1.28.1-.9c.02-.3 0-.6.05-.92zm-21.7 9.08v-9.07h-14.6a42 42 0 0 0 2 11.28 47.83 47.83 0 0 1 12.63-2.21zm16.2 2.2a42 42 0 0 0 2-11.28H168.7v9.07a48.74 48.74 0 0 1 6.39.67 47.11 47.11 0 0 1 6.25 1.54zM165.2 73.15l-.46-.05c-.6 0-1.18-.07-1.77-.12l-1.6-.15-2.45-.36-2.87-.6-3.23-.87c-.14 0-.2 0-.23.12l-.63 2.13a36.45 36.45 0 0 0-1 5l-.3 2.64v1.33h14.53zm18.14 9.06c0-.28 0-.55-.05-.8l-.2-2.05-.26-2-.52-2.54-1-3.66c0-.13-.08-.18-.24-.13l-1.66.48-2.55.6-2.2.43-1.9.27-1.5.15-2 .15-.6.05v9.06zM165.2 98.33a40.15 40.15 0 0 0-6.2.67 43.27 43.27 0 0 0-5.22 1.3 42.09 42.09 0 0 0 11.37 15.7h0zm3.53 0V116h.05a42.12 42.12 0 0 0 11.39-15.7 43.73 43.73 0 0 0-11.44-1.97zM153.9 67.66a43.58 43.58 0 0 0 5.58 1.34 45.5 45.5 0 0 0 5.71.61V52.24a42.15 42.15 0 0 0-11.29 15.42zm14.82-15.43v17.4a43.84 43.84 0 0 0 11.3-2 42 42 0 0 0-11.3-15.39zm-8.82.15v-.07a32.46 32.46 0 0 0-17.08 10l.1.08 1.46.93a42.92 42.92 0 0 0 4 2.11l2.14.94c.13.06.17 0 .22-.1l1.13-2.47a34 34 0 0 1 2.07-3.81l2.1-3.07 1.7-2.16 1.8-2zm31.26 10a32.23 32.23 0 0 0-17.12-10 1.58 1.58 0 0 0 .26.36l.94 1 1.64 1.94 2.18 2.94 1.44 2.28 1.5 2.7c.5.9.85 1.83 1.27 2.75.05.1.08.16.2.1l2.55-1.14 3.17-1.7 1.97-1.23zm-48.4 43.2a32.27 32.27 0 0 0 16.72 10 46.49 46.49 0 0 1-9-14 44.51 44.51 0 0 0-7.72 4zm40.7-4.06a46.3 46.3 0 0 1-9 14 32.3 32.3 0 0 0 16.72-10 44.18 44.18 0 0 0-7.72-4z"/><path d="M170.7 252.24L161.13 242l-18.68 10.2L163 230.43l9.8 10.2 18.44-10.2zm-3.7-46.86c-20.75 0-37.58 15.58-37.58 34.8a33.85 33.85 0 0 0 14 27.1v13.27l12.8-7A40.2 40.2 0 0 0 167 275c20.75 0 37.58-15.58 37.58-34.8S187.7 205.38 167 205.38z" fill-rule="evenodd"/></g><g fill="none" stroke="#fff" stroke-miterlimit="10" stroke-width="5"><path d="M82.63 82.57l164.6 164.6"/><path d="M82.47 247.5l164.9-164.92"/></g></svg>