<svg xmlns="http://www.w3.org/2000/svg" viewBox="0 0 330.01 330.01"><style><![CDATA[.D{letter-spacing:-0.01em}]]></style><circle cx="165" cy="165" r="165" fill="#00aeef"/><path d="M237.37 101.23h.7c.07 0 .14.1.2.1 4.4-.14 6.3 3 6.65 6.72l.34 5.9c.1 5.47.36 10.94.62 16.4l.54 11.22c.1 2 .26 4 .23 6-.06 4.7-2.34 7.26-6.88 7.65-.63.06-1.25 0-1.88 0H91.72a13.87 13.87 0 0 1-3.15-.26c-3.55-.8-5.36-3-5.53-6.78a70.86 70.86 0 0 1 .32-7.85l.3-6 .57-13.64.48-12.2a8.91 8.91 0 0 1 1.56-4.87 6.39 6.39 0 0 1 4.87-2.48h.7a2.61 2.61 0 0 0 1.38.12h142.9a2.24 2.24 0 0 0 1.25-.07zm46.13 51.3v.47c-.26.56-.06 1.15-.12 1.72v30.36c.06.6-.15 1.22.12 1.8v2.66a1.83 1.83 0 0 0 0 1.45v.73a15.44 15.44 0 0 0-.1 4 11.19 11.19 0 0 1-2.31 7.56 56.21 56.21 0 0 0-3.78 6.46 15.79 15.79 0 0 0-1.68 6.62c-.43 4.65-.8 9.3-1 14 0 .8 0 1.74-1 2.08h-1.45a1.3 1.3 0 0 0-1.21 0h-.25a6.06 6.06 0 0 1-.62-3.27c-.2-4.7-.63-9.4-1.1-14.1a7.55 7.55 0 0 0-.13-.83c-.82-4.95-2.57-6.43-7.6-6.6-16.64-.53-33.3-.37-49.94-.18l-89.5.1c-16.25-.08-32.5 0-48.74-.14a44 44 0 0 0-6.87.48 5.46 5.46 0 0 0-4.89 4.64 66.17 66.17 0 0 0-1 8.76l-.76 10.24a1.49 1.49 0 0 1-.35.88h-.3a1.83 1.83 0 0 0-1.45 0h-1.7a1.61 1.61 0 0 1-.58-1.28c-.14-3.9-.44-7.8-.78-11.67-.26-3.07-.2-6.24-1.64-9.1a57.19 57.19 0 0 0-3.45-6.1c-.68-1-1.32-2-1.92-3.07a8.14 8.14 0 0 1-1.08-4.23l-.1-21.87v-12.6c-.05-5.88.18-11.76.13-17.65A14.33 14.33 0 0 1 49 137a6 6 0 0 1 3.57-2.52 52.23 52.23 0 0 1 9-1.73c3.8-.4 7.6-1 11.43-1.12 3.33-.07 5 1.4 5.52 4.67a10.67 10.67 0 0 1 .12 1.69v15c0 2-.26 2.32-2.3 2.34-7 .07-11.12 5.55-11.73 11a14.82 14.82 0 0 0 1.55 9.26c2.18 3.85 5.4 6.1 10 6.1q88.7 0 177.37 0c6.63 0 11.16-5.44 11.66-11a17.83 17.83 0 0 0-.22-5.78c-1.27-5.22-5.18-9.54-11.6-9.6-1.8 0-2.14-.35-2.15-2.13q0-7.86 0-15.72a8 8 0 0 1 .38-2.38 4.53 4.53 0 0 1 4.53-3.48 42.66 42.66 0 0 1 6.39.49 91.52 91.52 0 0 1 13.38 2 10 10 0 0 1 7.42 9.29c.1 2.32-.1 4.66.2 7v.5a2.46 2.46 0 0 0-.02 1.67zm-28.8 63.64v-3.14a1.9 1.9 0 0 1 .29-1.26c.54-.67 1-1.58 2.06-1.38a3.29 3.29 0 0 1 2.44 2.66c0 4-.45 8-.73 12v.24c-.87.76-1.88.1-2.82.28-.64.12-.57-.36-.6-.76l-.54-8.68zm-179.34-.1l-.52 8.8c0 .56-.18.72-.76.75-2.65.14-2.68.17-2.86-2.48-.22-3.33-.58-6.66-.56-10a3.65 3.65 0 0 1 2.71-2.83c.83 0 2 1.44 2.06 2.5s0 2.17 0 3.26zm89.54-56.28h81.45c4.58 0 8 2.43 9.23 6.48A9 9 0 0 1 248 177.8a15.82 15.82 0 0 1-1.95.11H83.6c-4.72 0-8.2-2.33-9.46-6.35a9 9 0 0 1 8.39-11.76c4.14-.07 8.28 0 12.43 0z" fill="#fff"/><text transform="translate(-367.13 -49.81)" fill="#fff" font-size="130" font-family="SofiaProBlack,Sofia Pro">I<tspan class="D" x="41.08" y="0">C</tspan><tspan x="131.56" y="0">ONS</tspan></text></svg>