<?xml version="1.0" encoding="UTF-8" standalone="no"?>
<svg
   xmlns:dc="http://purl.org/dc/elements/1.1/"
   xmlns:cc="http://creativecommons.org/ns#"
   xmlns:rdf="http://www.w3.org/1999/02/22-rdf-syntax-ns#"
   xmlns:svg="http://www.w3.org/2000/svg"
   xmlns="http://www.w3.org/2000/svg"
   xmlns:sodipodi="http://sodipodi.sourceforge.net/DTD/sodipodi-0.dtd"
   xmlns:inkscape="http://www.inkscape.org/namespaces/inkscape"
   viewBox="0 0 6035.8702 316.05625"
   version="1.1"
   id="svg142"
   sodipodi:docname="decorative-horizontal-line.svg"
   width="6035.8701"
   height="316.05624"
   inkscape:version="0.92.4 (fd57863, 2020-04-02)">
  <metadata
     id="metadata148">
    <rdf:RDF>
      <cc:Work
         rdf:about="">
        <dc:format>image/svg+xml</dc:format>
        <dc:type
           rdf:resource="http://purl.org/dc/dcmitype/StillImage" />
      </cc:Work>
    </rdf:RDF>
  </metadata>
  <defs
     id="defs146" />
  <sodipodi:namedview
     pagecolor="#ffffff"
     bordercolor="#666666"
     borderopacity="1"
     objecttolerance="10"
     gridtolerance="10"
     guidetolerance="10"
     inkscape:pageopacity="0"
     inkscape:pageshadow="2"
     inkscape:window-width="1600"
     inkscape:window-height="871"
     id="namedview144"
     showgrid="false"
     inkscape:zoom="0.16"
     inkscape:cx="2931.9286"
     inkscape:cy="245.19194"
     inkscape:window-x="0"
     inkscape:window-y="1"
     inkscape:window-maximized="1"
     inkscape:current-layer="svg142" />
  <path
     d="m 3175.7,149.38578 h -73 a 85.16,85.16 0 0 0 -169.57,0 h -73 a 158,158 0 0 1 315.53,0 z"
     id="path108"
     inkscape:connector-curvature="0"
     style="fill:#5a4a42" />
  <circle
     cx="3017.9402"
     cy="157.4558"
     r="76.650002"
     id="circle110"
     style="fill:#68a336" />
  <g
     id="g120"
     style="fill:#ffffff"
     transform="translate(-45.920002,-76.614219)">
    <circle
       cx="3063.8601"
       cy="234.07001"
       r="26.879999"
       id="circle112" />
    <circle
       cx="3063.8601"
       cy="183.66"
       r="9.0100002"
       id="circle114" />
    <circle
       cx="3108.6499"
       cy="258.38"
       r="9.0100002"
       id="circle116" />
    <circle
       cx="3019.6899"
       cy="258.38"
       r="9.0100002"
       id="circle118" />
  </g>
  <path
     d="m 3094.92,195.51578 1.65,-3.52 1.5,-3.6 c 0,0 55.25,8 64.42,14.67 9.17,6.67 0.73,18.24 0.73,18.24 0,0 -2.86,14.05 -13.95,11.78 -11.09,-2.27 -54.36,-37.56 -54.36,-37.56 z m -19.74,25.87 2.85,-2.65 2.72,-2.77 c 0,0 48.22,28.14 54.23,37.73 6.01,9.59 -6.16,17.2 -6.16,17.2 0,0 -7.9,12 -17.34,5.7 -9.44,-6.3 -36.3,-55.2 -36.3,-55.2 z m -27.95,16.52 3.63,-1.4 3.55,-1.55 c 0,0 34.18,44.16 36.15,55.3 1.97,11.14 -12.14,13.63 -12.14,13.63 0,0 -11.82,8.12 -18.22,-1.2 -6.4,-9.32 -12.97,-64.78 -12.97,-64.78 z m -32.15,4.88 3.9,0.07 3.88,-0.1 c 0,0 15.14,53.74 12.8,64.8 -2.34,11.06 -16.37,8.1 -16.37,8.1 0,0 -14,3.1 -16.44,-7.95 -2.44,-11.05 12.23,-64.92 12.23,-64.92 z m -31.6,-7.5 3.57,1.52 3.64,1.35 c 0,0 -6.1,55.5 -12.4,64.9 -6.3,9.4 -18.21,1.33 -18.21,1.33 0,0 -14.15,-2.36 -12.27,-13.52 1.88,-11.16 35.66,-55.6 35.66,-55.6 z m -26.5,-18.82 2.74,2.75 2.86,2.6 c 0,0 -26.44,49.18 -35.8,55.52 -9.36,6.34 -17.4,-5.55 -17.4,-5.55 0,0 -12.23,-7.5 -6.3,-17.14 5.93,-9.64 53.9,-38.2 53.9,-38.2 z m -17.54,-27.38 1.5,3.58 1.68,3.5 c 0,0 -42.94,35.7 -54,38.06 -11.06,2.36 -14,-11.66 -14,-11.66 0,0 -8.53,-11.53 0.57,-18.25 9.1,-6.72 64.24,-15.23 64.24,-15.23 z"
     id="path122"
     inkscape:connector-curvature="0"
     style="fill:#68a336" />
  <path
     d="m 3407.99,157.92578 q 301.32,-4.35 602.64,-5.44 301.32,-1.54 602.64,-1.56 301.32,-0.02 602.65,1.54 301.32,1.53 602.64,5.46 -301.32,4.36 -602.64,5.46 -301.32,1.53 -602.65,1.54 -301.33,0.01 -602.64,-1.54 -301.32,-1.56 -602.64,-5.46 z"
     id="path124"
     inkscape:connector-curvature="0"
     style="fill:#00aeef" />
  <circle
     cx="5871.0103"
     cy="160.62579"
     r="19.98"
     id="circle126"
     style="fill:#68a336" />
  <circle
     cx="5943.4502"
     cy="160.62579"
     r="19.98"
     id="circle128"
     style="fill:#00aeef" />
  <circle
     cx="6015.8901"
     cy="160.62579"
     r="19.98"
     id="circle130"
     style="fill:#68a336" />
  <path
     d="m 3375.52,157.65578 -84.33,24 c 0,0 -33.1,7.92 -33.1,-24.07 0,-30.68 33.12,-23.93 33.12,-23.93 z m -747.64,0.27 q -301.32,4.35 -602.64,5.44 -301.32,1.54 -602.65,1.56 -301.33,0.02 -602.64,-1.54 -301.32,-1.53 -602.64,-5.46 301.32,-4.36 602.64,-5.46 301.32,-1.53 602.64,-1.54 301.32,-0.01 602.65,1.56 301.32,1.55 602.64,5.44 z"
     id="path132"
     inkscape:connector-curvature="0"
     style="fill:#00aeef" />
  <circle
     cx="164.86"
     cy="160.62579"
     r="19.98"
     id="circle134"
     style="fill:#68a336" />
  <circle
     cx="92.419998"
     cy="160.62579"
     r="19.98"
     id="circle136"
     style="fill:#00aeef" />
  <circle
     cx="19.98"
     cy="160.62579"
     r="19.98"
     id="circle138"
     style="fill:#68a336" />
  <path
     d="m 2660.35,157.65578 84.33,24 c 0,0 33.12,7.92 33.12,-24.07 0,-30.68 -33.12,-23.93 -33.12,-23.93 z"
     id="path140"
     inkscape:connector-curvature="0"
     style="fill:#00aeef" />
</svg>
