<svg xmlns="http://www.w3.org/2000/svg" viewBox="0 0 6229.71 463.52"><path d="M3221.62,226h-73a85.16,85.16,0,0,0-169.57,0h-73a158,158,0,0,1,315.53,0Z" fill="#5a4a42"/><circle cx="3063.86" cy="234.07" r="76.65" fill="#68a336"/><g fill="#fff"><circle cx="3063.86" cy="234.07" r="26.88"/><circle cx="3063.86" cy="183.66" r="9.01"/><circle cx="3108.65" cy="258.38" r="9.01"/><circle cx="3019.69" cy="258.38" r="9.01"/></g><path d="M3140.84 272.13l1.65-3.52 1.5-3.6s55.25 8 64.42 14.67.73 18.24.73 18.24-2.86 14.05-13.95 11.78-54.36-37.56-54.36-37.56zM3121.1 298l2.85-2.65 2.72-2.77s48.22 28.14 54.23 37.73-6.16 17.2-6.16 17.2-7.9 12-17.34 5.7-36.3-55.2-36.3-55.2zm-27.95 16.52l3.63-1.4 3.55-1.55s34.18 44.16 36.15 55.3-12.14 13.63-12.14 13.63-11.82 8.12-18.22-1.2-12.97-64.78-12.97-64.78zM3061 319.4l3.9.07 3.88-.1s15.14 53.74 12.8 64.8-16.37 8.1-16.37 8.1-14 3.1-16.44-7.95S3061 319.4 3061 319.4zm-31.6-7.5l3.57 1.52 3.64 1.35s-6.1 55.5-12.4 64.9S3006 381 3006 381s-14.15-2.36-12.27-13.52 35.66-55.6 35.66-55.6zm-26.5-18.82l2.74 2.75 2.86 2.6s-26.44 49.18-35.8 55.52-17.4-5.55-17.4-5.55-12.23-7.5-6.3-17.14 53.9-38.2 53.9-38.2zm-17.54-27.38l1.5 3.58 1.68 3.5s-42.94 35.7-54 38.06-14-11.66-14-11.66-8.53-11.53.57-18.25 64.24-15.23 64.24-15.23z" fill="#68a336"/><path d="M3453.91,234.54q301.32-4.35,602.64-5.44,301.32-1.54,602.64-1.56t602.65,1.54q301.32,1.53,602.64,5.46-301.32,4.36-602.64,5.46-301.32,1.53-602.65,1.54T4056.55,240Q3755.23,238.44,3453.91,234.54Z" fill="#00aeef"/><circle cx="5916.93" cy="237.24" r="19.98" fill="#68a336"/><circle cx="5989.37" cy="237.24" r="19.98" fill="#00aeef"/><circle cx="6061.81" cy="237.24" r="19.98" fill="#68a336"/><path d="M3421.44 234.27l-84.33 24s-33.1 7.92-33.1-24.07c0-30.68 33.12-23.93 33.12-23.93zm-747.64.27q-301.32 4.35-602.64 5.44-301.32 1.54-602.65 1.56-301.33.02-602.64-1.54-301.32-1.53-602.64-5.46 301.32-4.36 602.64-5.46 301.32-1.53 602.64-1.54 301.32-.01 602.65 1.56 301.32 1.55 602.64 5.44z" fill="#00aeef"/><circle cx="210.78" cy="237.24" r="19.98" fill="#68a336"/><circle cx="138.34" cy="237.24" r="19.98" fill="#00aeef"/><circle cx="65.9" cy="237.24" r="19.98" fill="#68a336"/><path d="M2706.27,234.27l84.33,24s33.12,7.92,33.12-24.07c0-30.68-33.12-23.93-33.12-23.93Z" fill="#00aeef"/></svg>