<?xml version="1.0" encoding="UTF-8" standalone="no"?>
<svg
   xmlns:dc="http://purl.org/dc/elements/1.1/"
   xmlns:cc="http://creativecommons.org/ns#"
   xmlns:rdf="http://www.w3.org/1999/02/22-rdf-syntax-ns#"
   xmlns:svg="http://www.w3.org/2000/svg"
   xmlns="http://www.w3.org/2000/svg"
   xmlns:sodipodi="http://sodipodi.sourceforge.net/DTD/sodipodi-0.dtd"
   xmlns:inkscape="http://www.inkscape.org/namespaces/inkscape"
   viewBox="0 0 247.55999 202.08688"
   version="1.1"
   id="svg8"
   sodipodi:docname="handshake-icon.svg"
   width="247.56"
   height="202.08688"
   style="fill:#ffffff"
   inkscape:version="0.92.4 (fd57863, 2020-04-02)">
  <metadata
     id="metadata14">
    <rdf:RDF>
      <cc:Work
         rdf:about="">
        <dc:format>image/svg+xml</dc:format>
        <dc:type
           rdf:resource="http://purl.org/dc/dcmitype/StillImage" />
      </cc:Work>
    </rdf:RDF>
  </metadata>
  <defs
     id="defs12" />
  <sodipodi:namedview
     pagecolor="#ffffff"
     bordercolor="#666666"
     borderopacity="1"
     objecttolerance="10"
     gridtolerance="10"
     guidetolerance="10"
     inkscape:pageopacity="0"
     inkscape:pageshadow="2"
     inkscape:window-width="1600"
     inkscape:window-height="872"
     id="namedview10"
     showgrid="false"
     inkscape:zoom="0.71512982"
     inkscape:cx="122.455"
     inkscape:cy="119.97697"
     inkscape:window-x="0"
     inkscape:window-y="0"
     inkscape:window-maximized="1"
     inkscape:current-layer="svg8" />
  <path
     d="m 60.39,156.4349 c -1.83,6.8 -2.1,13.08 4.13,17.67 5.53,4.08 10.63,2.35 15.58,-1.94 -3,9.2 -2.38,12.86 3,17 7.2,5.54 12.58,1.42 18,-4.2 -0.3,1.3 -0.5,1.9 -0.6,2.53 -1,5.85 1.7,11.46 6.7,13.68 4.5,2 9.06,0.38 12.95,-4.66 1,-1.3 1.9,-2.72 2.85,-4.13 4.08,3.64 8.58,4.47 13.55,2.56 4.97,-1.91 7.94,-5.5 10,-10.18 5.62,3.66 11.43,5.46 17.78,2.86 6.67,-2.74 8.57,-8.67 9.46,-15.25 5.66,0.28 10.78,-0.44 14.8,-5 3.8,-4.32 5.1,-9.34 5,-14.85 l 1.2,-0.22 c 6.52,-1.28 12,-4 15.08,-10.38 3.76,-7.84 3,-15.3 -1.7,-22.45 a 3.41,3.41 0 0 1 -0.45,-3.53 c 1.23,-3.06 2.23,-6.2 3.45,-9.27 a 5.47,5.47 0 0 0 -0.09,-4.58 Q 195.33,66.154902 179.68,30.194902 c -0.34,-0.8 -0.74,-1.57 -1.08,-2.28 -10.27,1 -19.6,-2.08 -28.87,-5.4 a 56.58,56.58 0 0 0 -23.25,-3.32 c -7.36,0.53 -13.9,3.78 -20.28,7.3 a 8.93,8.93 0 0 1 -4.06,1.09 l -32.64,0.08 c -0.82,0 -2.15,0.13 -2.36,0.6 -1.7,3.78 -3.17,7.66 -4.84,11.8 h 25.8 c -0.52,0.77 -0.72,1.1 -1,1.4 -4.24,5.86 -6.55,12.28 -6.15,19.63 a 35.41,35.41 0 0 1 -3.54,18 c -1.35,2.7 -1.37,5.64 0.78,7.93 3.4,3.62 7.87,5.4 12.67,4.46 12.5,-2.42 21,-11.37 22.93,-24 0.77,-4.92 3.6,-8 7.65,-10.17 a 12.53,12.53 0 0 1 14.86,2.2 q 32.1,31.5 64.23,62.999998 c 4,3.9 4.9,8.35 3.34,13.46 a 8.49,8.49 0 0 1 -13.2,4.13 q -12,-9.54 -24,-19.1 -10.78,-8.58 -21.6,-17.14 c -2.24,-1.78 -5.43,-1.7 -6.76,0.07 -1.33,1.77 -0.8,5 1.34,6.76 l 15.56,12.68 q 14.24,11.6 28.48,23.22 c 3.6,2.93 3.8,7.8 0.52,11.84 -2.25,2.76 -6.28,2.82 -9.7,0.12 l -20.26,-16.08 q -9.47,-7.5 -18.94,-15 c -2.6,-2.06 -6.35,-1.07 -6.75,1.8 a 5.85,5.85 0 0 0 2.17,6 l 32.8,25.93 a 15,15 0 0 1 2.46,2.31 c 2.58,3.27 2,7.54 -1.3,10.88 -2.78,2.8 -5.56,2.78 -9.18,0 l -30,-23.3 c -2.14,-1.65 -5.54,-1.48 -7,0.33 -1.46,1.81 -0.92,4.48 1.18,6.34 l 19,16.82 a 3.6,3.6 0 0 1 1.3,4 5.3,5.3 0 0 1 -5.17,4.27 c -3.65,0.22 -9.38,-3.62 -11.13,-6.86 -0.92,-1.7 -2.55,-3.6 -4.27,-4.16 a 19.33,19.33 0 0 1 -7.07,-4.35 5.94,5.94 0 0 1 -1.84,-3.06 c -1.72,-8.9 -5.84,-12 -14.58,-10.88 a 12.17,12.17 0 0 1 -4.5,-7.77 c -1.14,-7.55 -5.57,-10.83 -13.1,-10.8 -1.44,0 -3.52,-2 -3.52,-3.45 0,-1.45 0.13,-2.6 0,-3.87 -0.9,-9.65 -5.8,-14.87 -15.86,-13.7 a 3.44,3.44 0 0 1 -2.62,-1.35 L 42.75,92.904902 c -0.42,-0.62 -0.9,-1.2 -1.5,-2 -1.48,3.3 -2.92,6.2 -4,9.199998 a 4.8,4.8 0 0 0 0.16,3.5 c 3.36,6.33 6.86,12.6 10.42,18.8 a 2.87,2.87 0 0 1 -0.09,3.46 c -2.53,3.92 -4.8,8 -7.4,11.88 a 13.67,13.67 0 0 0 -2.18,8.26 c 0.16,6.37 3.42,10.8 9,13.5 4.92,2.4 9,0.45 12.74,-2.93 a 2.79,2.79 0 0 1 0.48,-0.14 z M 247.55,88.334902 a 49.58,49.58 0 0 0 -1.73,-5.71 q -16.1,-36.94 -32.3,-73.8599996 a 47.61,47.61 0 0 0 -2.57,-5.45 c -2.1,-3.49999997 -5.12,-4.21999997 -8.63,-2.2 q -6.7,3.86 -13.35,7.8 c -3.55,2.0999996 -4.45,5.2999996 -2.76,9.0999996 q 13.23,29.9 26.42,59.84 l 9,20.8 c 2.3,5.249998 4.67,6.069998 9.6,3.399998 l 11.67,-6.339998 c 2.95,-1.57 4.27,-4.05 4.66,-7.38 z"
     id="path2"
     inkscape:connector-curvature="0" />
  <path
     d="m 0.01,88.104902 c 0.32,3.37 1.53,5.8 4.62,7.3 3.47,1.7 6.8,3.68 10.2,5.519998 a 20.75,20.75 0 0 0 3,1.49 c 3.93,1.32 7,-0.5 9.12,-5.339998 q 17,-39.47 34,-78.94 a 18.12,18.12 0 0 0 1.07,-3.19 c 0.7,-3.2 -0.4,-5.4699996 -3.35,-6.9999996 L 44.41,0.84490243 c -3.48,-1.7 -6.33,-0.62 -7.85,2.93999997 -0.78,1.85 -1.37,3.8 -2.18,5.62 Q 17.94,46.504902 1.48,83.574902 c -0.58,1.45 -0.96,3 -1.47,4.54 z M 60.39,156.4349 a 2.79,2.79 0 0 0 -0.49,0.11 c -3.7,3.38 -7.82,5.33 -12.74,2.93 -5.58,-2.7 -8.84,-7.14 -9,-13.5 a 13.67,13.67 0 0 1 2.18,-8.26 c 2.6,-3.87 4.88,-8 7.4,-11.88 a 2.87,2.87 0 0 0 0.09,-3.46 l -10.38,-18.82 a 4.8,4.8 0 0 1 -0.16,-3.5 c 1.12,-2.999998 2.56,-5.899998 4,-9.199998 0.6,0.8 1.1,1.38 1.5,2 L 56.37,112.5549 a 3.44,3.44 0 0 0 2.62,1.35 c 10.07,-1.17 15,4.05 15.86,13.7 0.12,1.28 0,2.58 0,3.87 0,1.29 2.08,3.45 3.52,3.45 7.53,0 12,3.26 13.1,10.8 a 12.17,12.17 0 0 0 4.5,7.77 c 8.74,-1.14 12.86,2 14.58,10.88 a 5.94,5.94 0 0 0 1.84,3.06 19.33,19.33 0 0 0 7.07,4.35 c 1.72,0.55 3.35,2.46 4.27,4.16 1.75,3.24 7.48,7.08 11.13,6.86 a 5.3,5.3 0 0 0 5.17,-4.27 3.6,3.6 0 0 0 -1.3,-4 l -19,-16.82 c -2.1,-1.86 -2.6,-4.57 -1.18,-6.34 1.42,-1.77 4.86,-2 7,-0.33 l 30,23.3 c 3.62,2.82 6.4,2.83 9.18,0 3.33,-3.34 3.87,-7.6 1.3,-10.88 a 15,15 0 0 0 -2.46,-2.31 l -32.8,-25.93 a 5.85,5.85 0 0 1 -2.17,-6 c 0.4,-2.87 4.14,-3.86 6.75,-1.8 q 9.5,7.5 18.94,15 l 20.16,16.18 c 3.42,2.7 7.45,2.64 9.7,-0.12 3.27,-4 3.07,-8.9 -0.52,-11.84 q -14.18,-11.64 -28.45,-23.24 l -15.56,-12.68 c -2.14,-1.75 -2.77,-4.87 -1.34,-6.76 1.43,-1.89 4.52,-1.85 6.76,-0.07 q 10.82,8.55 21.6,17.14 12,9.54 24,19.1 a 8.49,8.49 0 0 0 13.31,-4.11 c 1.56,-5.1 0.66,-9.56 -3.34,-13.46 Q 168.45,91.104902 136.45,59.604902 a 12.53,12.53 0 0 0 -14.86,-2.2 c -4,2.17 -6.88,5.25 -7.65,10.17 -2,12.63 -10.44,21.58 -22.93,24 -4.8,0.93 -9.28,-0.84 -12.67,-4.46 -2.15,-2.3 -2.13,-5.22 -0.78,-7.93 a 35.41,35.41 0 0 0 3.54,-18 c -0.4,-7.35 1.9,-13.77 6.15,-19.63 0.23,-0.3 0.43,-0.64 1,-1.4 H 62.37 l 4.84,-11.8 c 0.2,-0.47 1.54,-0.6 2.36,-0.6 l 32.64,-0.08 a 8.93,8.93 0 0 0 4.06,-1.09 c 6.38,-3.53 12.92,-6.78 20.28,-7.3 a 56.58,56.58 0 0 1 23.25,3.32 c 9.27,3.33 18.6,6.36 28.87,5.4 0.34,0.7 0.74,1.48 1.08,2.28 q 15.7,36 31.4,71.899998 a 5.47,5.47 0 0 1 0.09,4.58 c -1.22,3.06 -2.22,6.2 -3.45,9.27 a 3.41,3.41 0 0 0 0.45,3.53 c 4.7,7.14 5.47,14.6 1.7,22.45 -3.06,6.38 -8.56,9.1 -15.08,10.38 l -1.2,0.22 c 0.1,5.5 -1.2,10.53 -5,14.85 -4,4.56 -9.14,5.28 -14.8,5 -0.9,6.58 -2.8,12.5 -9.46,15.25 -6.35,2.6 -12.16,0.8 -17.78,-2.86 -2.1,4.67 -5.2,8.33 -10,10.18 -4.8,1.85 -9.47,1.08 -13.55,-2.56 -1,1.4 -1.84,2.82 -2.85,4.13 -3.9,5 -8.45,6.65 -12.95,4.66 -5,-2.22 -7.75,-7.83 -6.7,-13.68 0.1,-0.62 0.3,-1.24 0.6,-2.53 -5.4,5.63 -10.78,9.75 -18,4.2 -5.42,-4.17 -6,-7.83 -3,-17 -5,4.3 -10.05,6 -15.58,1.94 -6.28,-4.67 -6.02,-10.96 -4.2,-17.75 z"
     id="path4"
     inkscape:connector-curvature="0" />
  <path
     d="m 247.55,88.344902 c -0.4,3.33 -1.7,5.8 -4.64,7.38 l -11.67,6.339998 c -4.93,2.68 -7.3,1.86 -9.6,-3.399998 l -9,-20.8 q -13.2,-29.94 -26.44,-59.84 c -1.7,-3.82 -0.8,-7 2.76,-9.0999996 q 6.64,-3.93 13.35,-7.8 c 3.5,-1.99999997 6.53,-1.29999997 8.63,2.2 a 47.61,47.61 0 0 1 2.57,5.45 q 16.17,36.9299996 32.3,73.8599996 a 49.58,49.58 0 0 1 1.73,5.71 z m -247.54,-0.24 1.53,-4.5 q 16.43,-37.12 32.91,-74.1999996 l 2.18,-5.62 c 1.5,-3.55999997 4.35,-4.67999997 7.82,-2.93999997 L 58.71,7.9449024 c 3,1.48 4,3.7399996 3.35,6.9999996 a 18.12,18.12 0 0 1 -1.07,3.19 q -17,39.48 -34,78.94 c -2.1,4.829998 -5.2,6.659998 -9.12,5.339998 a 20.75,20.75 0 0 1 -3,-1.49 c -3.4,-1.839998 -6.72,-3.829998 -10.2,-5.519998 -3.14,-1.56 -4.35,-3.98 -4.67,-7.3 z"
     id="path6"
     inkscape:connector-curvature="0" />
</svg>
