<svg xmlns="http://www.w3.org/2000/svg" viewBox="0 0 330.01 330.01" fill="#fff"><path d="M102.94 239.33c-1.83 6.8-2.1 13.08 4.13 17.67 5.53 4.08 10.63 2.35 15.58-1.94-3 9.2-2.38 12.86 3 17 7.2 5.54 12.58 1.42 18-4.2-.3 1.3-.5 1.9-.6 2.53-1 5.85 1.7 11.46 6.7 13.68 4.5 2 9.06.38 12.95-4.66 1-1.3 1.9-2.72 2.85-4.13 4.08 3.64 8.58 4.47 13.55 2.56s7.94-5.5 10-10.18c5.62 3.66 11.43 5.46 17.78 2.86 6.67-2.74 8.57-8.67 9.46-15.25 5.66.28 10.78-.44 14.8-5 3.8-4.32 5.1-9.34 5-14.85l1.2-.22c6.52-1.28 12-4 15.08-10.38 3.76-7.84 3-15.3-1.7-22.45a3.41 3.41 0 0 1-.45-3.53c1.23-3.06 2.23-6.2 3.45-9.27a5.47 5.47 0 0 0-.09-4.58q-15.75-35.94-31.4-71.9c-.34-.8-.74-1.57-1.08-2.28-10.27 1-19.6-2.08-28.87-5.4a56.58 56.58 0 0 0-23.25-3.32c-7.36.53-13.9 3.78-20.28 7.3a8.93 8.93 0 0 1-4.06 1.09l-32.64.08c-.82 0-2.15.13-2.36.6-1.7 3.78-3.17 7.66-4.84 11.8h25.8c-.52.77-.72 1.1-1 1.4-4.24 5.86-6.55 12.28-6.15 19.63a35.41 35.41 0 0 1-3.54 18c-1.35 2.7-1.37 5.64.78 7.93 3.4 3.62 7.87 5.4 12.67 4.46 12.5-2.42 21-11.37 22.93-24 .77-4.92 3.6-8 7.65-10.17a12.53 12.53 0 0 1 14.86 2.2q32.1 31.5 64.23 63c4 3.9 4.9 8.35 3.34 13.46a8.49 8.49 0 0 1-13.2 4.13q-12-9.54-24-19.1-10.78-8.58-21.6-17.14c-2.24-1.78-5.43-1.7-6.76.07s-.8 5 1.34 6.76l15.56 12.68q14.24 11.6 28.48 23.22c3.6 2.93 3.8 7.8.52 11.84-2.25 2.76-6.28 2.82-9.7.12l-20.26-16.08q-9.47-7.5-18.94-15c-2.6-2.06-6.35-1.07-6.75 1.8a5.85 5.85 0 0 0 2.17 6l32.8 25.93a15 15 0 0 1 2.46 2.31c2.58 3.27 2 7.54-1.3 10.88-2.78 2.8-5.56 2.78-9.18 0l-30-23.3c-2.14-1.65-5.54-1.48-7 .33s-.92 4.48 1.18 6.34l19 16.82a3.6 3.6 0 0 1 1.3 4 5.3 5.3 0 0 1-5.17 4.27c-3.65.22-9.38-3.62-11.13-6.86-.92-1.7-2.55-3.6-4.27-4.16a19.33 19.33 0 0 1-7.07-4.35 5.94 5.94 0 0 1-1.84-3.06c-1.72-8.9-5.84-12-14.58-10.88a12.17 12.17 0 0 1-4.5-7.77c-1.14-7.55-5.57-10.83-13.1-10.8-1.44 0-3.52-2-3.52-3.45s.13-2.6 0-3.87c-.9-9.65-5.8-14.87-15.86-13.7a3.44 3.44 0 0 1-2.62-1.35L85.3 175.8c-.42-.62-.9-1.2-1.5-2-1.48 3.3-2.92 6.2-4 9.2a4.8 4.8 0 0 0 .16 3.5c3.36 6.33 6.86 12.6 10.42 18.8a2.87 2.87 0 0 1-.09 3.46c-2.53 3.92-4.8 8-7.4 11.88a13.67 13.67 0 0 0-2.18 8.26c.16 6.37 3.42 10.8 9 13.5 4.92 2.4 9 .45 12.74-2.93a2.79 2.79 0 0 1 .48-.14zm187.16-68.1a49.58 49.58 0 0 0-1.73-5.71q-16.1-36.94-32.3-73.86a47.61 47.61 0 0 0-2.57-5.45c-2.1-3.5-5.12-4.22-8.63-2.2q-6.7 3.86-13.35 7.8c-3.55 2.1-4.45 5.3-2.76 9.1q13.23 29.9 26.42 59.84l9 20.8c2.3 5.25 4.67 6.07 9.6 3.4l11.67-6.34c2.95-1.57 4.27-4.05 4.66-7.38z"/><path d="M42.56 171c.32 3.37 1.53 5.8 4.62 7.3 3.47 1.7 6.8 3.68 10.2 5.52a20.75 20.75 0 0 0 3 1.49c3.93 1.32 7-.5 9.12-5.34q17-39.47 34-78.94a18.12 18.12 0 0 0 1.07-3.19c.7-3.2-.4-5.47-3.35-7l-14.26-7.1c-3.48-1.7-6.33-.62-7.85 2.94-.78 1.85-1.37 3.8-2.18 5.62q-16.44 37.1-32.9 74.17c-.58 1.45-.96 3-1.47 4.54zm60.38 68.33a2.79 2.79 0 0 0-.49.11c-3.7 3.38-7.82 5.33-12.74 2.93-5.58-2.7-8.84-7.14-9-13.5a13.67 13.67 0 0 1 2.18-8.26c2.6-3.87 4.88-8 7.4-11.88a2.87 2.87 0 0 0 .09-3.46L80 186.45a4.8 4.8 0 0 1-.16-3.5c1.12-3 2.56-5.9 4-9.2.6.8 1.1 1.38 1.5 2l13.58 19.7a3.44 3.44 0 0 0 2.62 1.35c10.07-1.17 15 4.05 15.86 13.7.12 1.28 0 2.58 0 3.87s2.08 3.45 3.52 3.45c7.53 0 12 3.26 13.1 10.8a12.17 12.17 0 0 0 4.5 7.77c8.74-1.14 12.86 2 14.58 10.88a5.94 5.94 0 0 0 1.84 3.06 19.33 19.33 0 0 0 7.07 4.35c1.72.55 3.35 2.46 4.27 4.16 1.75 3.24 7.48 7.08 11.13 6.86a5.3 5.3 0 0 0 5.17-4.27 3.6 3.6 0 0 0-1.3-4l-19-16.82c-2.1-1.86-2.6-4.57-1.18-6.34s4.86-2 7-.33l30 23.3c3.62 2.82 6.4 2.83 9.18 0 3.33-3.34 3.87-7.6 1.3-10.88a15 15 0 0 0-2.46-2.31l-32.8-25.93a5.85 5.85 0 0 1-2.17-6c.4-2.87 4.14-3.86 6.75-1.8q9.5 7.5 18.94 15L217 241.5c3.42 2.7 7.45 2.64 9.7-.12 3.27-4 3.07-8.9-.52-11.84Q212 217.9 197.73 206.3l-15.56-12.68c-2.14-1.75-2.77-4.87-1.34-6.76s4.52-1.85 6.76-.07q10.82 8.55 21.6 17.14 12 9.54 24 19.1a8.49 8.49 0 0 0 13.31-4.11c1.56-5.1.66-9.56-3.34-13.46Q211 174 179 142.5a12.53 12.53 0 0 0-14.86-2.2c-4 2.17-6.88 5.25-7.65 10.17-2 12.63-10.44 21.58-22.93 24-4.8.93-9.28-.84-12.67-4.46-2.15-2.3-2.13-5.22-.78-7.93a35.41 35.41 0 0 0 3.54-18c-.4-7.35 1.9-13.77 6.15-19.63.23-.3.43-.64 1-1.4h-25.88l4.84-11.8c.2-.47 1.54-.6 2.36-.6l32.64-.08a8.93 8.93 0 0 0 4.06-1.09c6.38-3.53 12.92-6.78 20.28-7.3a56.58 56.58 0 0 1 23.25 3.32c9.27 3.33 18.6 6.36 28.87 5.4.34.7.74 1.48 1.08 2.28q15.7 36 31.4 71.9a5.47 5.47 0 0 1 .09 4.58c-1.22 3.06-2.22 6.2-3.45 9.27a3.41 3.41 0 0 0 .45 3.53c4.7 7.14 5.47 14.6 1.7 22.45-3.06 6.38-8.56 9.1-15.08 10.38l-1.2.22c.1 5.5-1.2 10.53-5 14.85-4 4.56-9.14 5.28-14.8 5-.9 6.58-2.8 12.5-9.46 15.25-6.35 2.6-12.16.8-17.78-2.86-2.1 4.67-5.2 8.33-10 10.18s-9.47 1.08-13.55-2.56c-1 1.4-1.84 2.82-2.85 4.13-3.9 5-8.45 6.65-12.95 4.66-5-2.22-7.75-7.83-6.7-13.68.1-.62.3-1.24.6-2.53-5.4 5.63-10.78 9.75-18 4.2-5.42-4.17-6-7.83-3-17-5 4.3-10.05 6-15.58 1.94-6.28-4.67-6.02-10.96-4.2-17.75z"/><path d="M290.1 171.24c-.4 3.33-1.7 5.8-4.64 7.38l-11.67 6.34c-4.93 2.68-7.3 1.86-9.6-3.4l-9-20.8q-13.2-29.94-26.44-59.84c-1.7-3.82-.8-7 2.76-9.1q6.64-3.93 13.35-7.8c3.5-2 6.53-1.3 8.63 2.2a47.61 47.61 0 0 1 2.57 5.45q16.17 36.93 32.3 73.86a49.58 49.58 0 0 1 1.73 5.71zM42.56 171l1.53-4.5Q60.52 129.38 77 92.3l2.18-5.62c1.5-3.56 4.35-4.68 7.82-2.94l14.26 7.1c3 1.48 4 3.74 3.35 7a18.12 18.12 0 0 1-1.07 3.19q-17 39.48-34 78.94c-2.1 4.83-5.2 6.66-9.12 5.34a20.75 20.75 0 0 1-3-1.49c-3.4-1.84-6.72-3.83-10.2-5.52-3.14-1.56-4.35-3.98-4.67-7.3z"/></svg>