<svg xmlns="http://www.w3.org/2000/svg" viewBox="0 0 330.01 330.01"><style><![CDATA[.D{letter-spacing:-0.01em}]]></style><circle cx="165" cy="165" r="165" fill="#00aeef"/><path d="M50 158.82c4-3.6 7.9-7.33 12-10.8q38.74-32.4 77.58-64.66l14.62-12.13a17.13 17.13 0 0 1 21.88 0l32.45 27.06c.66.56 1.4 1 2.55 1.85.08-1.53.18-2.5.18-3.44q0-12 0-24c0-3.58 1.22-4.8 4.8-4.8q13 0 26 0c3.72 0 4.94 1.2 4.94 4.94v54a6.56 6.56 0 0 0 2.63 5.74l27.53 22.8c3.68 3.06 3.83 5 .78 8.58l-7.06 8.43c-2.4 2.77-4.6 3-7.52.6q-40.54-33.77-81.06-67.57l-15.14-12.68c-1.52-1.32-2.53-1.23-4 0q-17.16 14.46-34.4 28.74-30.6 25.5-61.24 51.08c-3.75 3.12-5.6 2.9-8.77-.9l-8.8-10.84zm115.2-60.3l16.8 13.83q31.16 25.68 62.34 51.33a6.6 6.6 0 0 1 2.72 5.7l-.06 64.5c0 6.9-3.4 10.27-10.27 10.28-16.67 0-33.34-.05-50 .05-2.46 0-3.06-.75-3-3.1V192.6c0-3.42 0-3.43-3.48-3.43H150c-3.53 0-3.54 0-3.54 3.67v48.27c0 2.35-.58 3.14-3 3.12-16.76-.1-33.52 0-50.27-.05-6.36 0-10-3.58-10-9.83v-65.78a5 5 0 0 1 2-4.24q39.6-32.55 79.1-65.18c.12-.16.35-.27.9-.63z" fill="#fff"/><text transform="translate(0 -49.81)" fill="#fff" font-size="130" font-family="SofiaProBlack,Sofia Pro">I<tspan class="D" x="41.08" y="0">C</tspan><tspan x="131.56" y="0">ONS</tspan></text></svg>