<svg xmlns="http://www.w3.org/2000/svg" width="1920" height="612.982"><style><![CDATA[.B{letter-spacing:0.49em}.C{letter-spacing:0.46em}.D{letter-spacing:0.45em}.E{letter-spacing:0.43em}.F{letter-spacing:0.48em}.K{stroke-miterlimit:10}.L{stroke-width:.25}.M{fill:#5a4a42}.N{fill:#68a336}]]></style><text x="320.32" y="107.742" font-size="145" font-family="SofiaProMedium, Sofia Pro" stroke="#5a4a42" class="M"><tspan class="B K L" letter-spacing="0.49000001em">NET</tspan><tspan class="C K L" x="795.71" y="107.742" letter-spacing="0.46000001em">T</tspan><tspan class="D K L" x="942.58" y="107.742" letter-spacing="0.44999999em">O</tspan><tspan class="E K L" x="1122.5" y="107.742" letter-spacing="0.43000001em">Y</tspan><tspan class="F K L" x="1276.62" y="107.742" letter-spacing="0.47999999em">A</tspan><tspan class="B K L" x="1437.69" y="107.742" letter-spacing="0.49000001em">G</tspan><tspan x="1618.2" y="107.742" class="K L">E</tspan></text><path d="M505.38 384.022c-40.68 0-70.28-34.33-70.28-74s29.6-74 70.28-74c39.32 0 68.27 32.1 70.15 70h87.75c-1.95-87.8-69.4-151.9-157.9-151.9-89.8 0-158 66-158 155.85s68.2 155.94 158 155.94c80.06 0 142.9-52.47 155.6-127.46h-90.66c-10.26 26.3-34.5 45.56-64.95 45.56zm-189.66-70.26c0-88.23-65-160.1-154.8-160.1-86.12 0-153.74 72.38-153.74 157.45 0 85.58 69.72 155.32 155.32 155.32 66 0 117.8-42.8 143.17-101.43h-89.8c-14.26 18-29.6 27.46-53.36 27.46-34.35 0-63.4-20.6-68.68-55.46H313.6a115.76 115.76 0 0 0 2.12-23.25zm-220.84-35.93c6.86-31.7 34.86-50.2 66.56-50.2s59.7 18.5 66.56 50.2z" class="M"/><path d="M1298.38 179.042c-19-15.85-50.2-25.36-75-25.36-35.4 0-61.3 11.1-79.78 41.2h-1.06v-31.17h-81.9v293.2h87.7v-159.54c0-34.87 9.5-61.3 50.2-61.3 39.62 0 46 28 46 60.76v160.07h87.7v-183.32c-.06-34.34-5.87-71.32-33.87-94.56zm388.84 134.72c0-88.23-65-160.1-154.8-160.1-86.1 0-153.74 72.38-153.74 157.45 0 85.58 69.74 155.32 155.32 155.32 66 0 117.8-42.8 143.17-101.43h-89.8c-14.26 18-29.58 27.46-53.36 27.46-34.33 0-63.4-20.6-68.68-55.46h219.78a115.76 115.76 0 0 0 2.12-23.25zm-220.84-35.93c6.87-31.7 34.87-50.2 66.56-50.2s59.7 18.5 66.57 50.2zm446.62-46.23v-69.36h-72v-96.26h-87.7v96.26h-55.53v69.36h55.53v154.26a71.07 71.07 0 0 0 71.03 71.06H1913v-71.06h-56.64a15.38 15.38 0 0 1-15.36-15.38v-138.88z" class="N"/><path d="M1005 306.102h-73a85.17 85.17 0 0 0-169.58 0h-73a158 158 0 0 1 315.53 0z" class="M"/><circle cx="847.19" cy="314.142" r="76.65" class="N"/><g fill="#fff"><circle cx="847.19" cy="314.142" r="26.88"/><circle cx="847.19" cy="263.742" r="9.01"/><circle cx="891.98" cy="338.462" r="9.01"/><circle cx="803.02" cy="338.462" r="9.01"/></g><path d="M924.17 352.202l1.64-3.5 1.48-3.6s55.26 8 64.42 14.67.73 18.24.73 18.24-2.85 14.05-13.94 11.78-54.33-37.6-54.33-37.6zm-19.73 25.84l2.85-2.65 2.7-2.77s48.23 28.14 54.24 37.73-6.16 17.2-6.16 17.2-7.9 12-17.34 5.7-36.3-55.2-36.3-55.2zm-27.96 16.56l3.62-1.4 3.56-1.55s34.18 44.16 36.15 55.3-12.15 13.63-12.15 13.63-11.8 8.12-18.2-1.2-12.97-64.78-12.97-64.78zm-32.14 4.88l3.88.07 3.9-.1s15.14 53.74 12.8 64.8-16.36 8.1-16.36 8.1-14 3.1-16.44-7.95 12.24-64.92 12.24-64.92zm-31.62-7.5l3.57 1.52 3.64 1.35s-6.1 55.5-12.4 64.9-18.2 1.37-18.2 1.37-14.14-2.36-12.26-13.52 35.67-55.6 35.67-55.6zm-26.52-18.82l2.8 2.77 2.86 2.62s-26.48 49.16-35.86 55.5-17.4-5.55-17.4-5.55-12.22-7.5-6.3-17.14 53.9-38.2 53.9-38.2zm-17.5-27.37l1.5 3.58 1.67 3.5s-42.93 35.7-54 38.06-14-11.67-14-11.67-8.53-11.52.58-18.24 64.24-15.23 64.24-15.23z" class="N"/><g class="M"><circle cx="46.19" cy="566.792" r="46.19"/><circle cx="193.46" cy="566.792" r="46.19"/><circle cx="341.11" cy="566.792" r="46.19"/><circle cx="486.61" cy="566.792" r="46.19"/><circle cx="637.36" cy="566.792" r="46.19"/><circle cx="787.05" cy="566.792" r="46.19"/></g><g class="N"><circle cx="938.12" cy="566.792" r="46.19"/><circle cx="1095.12" cy="566.792" r="46.19"/><circle cx="1247.99" cy="566.792" r="46.19"/><circle cx="1406.41" cy="566.792" r="46.19"/><circle cx="1560.67" cy="566.792" r="46.19"/><circle cx="1718.29" cy="566.792" r="46.19"/><circle cx="1873.81" cy="566.792" r="46.19"/></g><path d="M224.36 54.532a25.65 25.65 0 0 0-7.26 1.06 215.41 215.41 0 0 0-51 16.43l-74.9 33.63h133.15a25.56 25.56 0 0 0 0-51.12z" fill="#00aeef"/></svg>