<svg xmlns="http://www.w3.org/2000/svg" viewBox="0 0 315.53 316.57"><circle cx="158.09" cy="158.29" r="76.65" fill="#68a336"/><g fill="#fff"><circle cx="158.09" cy="158.29" r="26.88"/><circle cx="208.49" cy="158.29" r="9.01"/><circle cx="133.77" cy="203.08" r="9.01"/><circle cx="133.77" cy="114.12" r="9.01"/></g><path d="M120 235.27l3.5 1.65 3.6 1.48s-8 55.25-14.67 64.4-18.24.73-18.24.73-14-2.85-11.78-13.94 37.6-54.33 37.6-54.33zm-25.8-19.73l2.65 2.85 2.77 2.7s-28.14 48.23-37.73 54.24-17.2-6.16-17.2-6.16-11.95-7.9-5.7-17.34 55.2-36.3 55.2-36.3zm-16.57-27.96L79 191.2l1.55 3.56s-44.16 34.18-55.3 36.15-13.63-12.15-13.63-12.15-8.1-11.76 1.23-18.2 64.78-12.97 64.78-12.97zm-4.88-32.14l-.07 3.88.1 3.9S19 178.35 8 176-.12 159.64-.12 159.64s-3.1-14 8-16.44 64.87 12.24 64.87 12.24zm7.52-31.62l-1.53 3.57-1.35 3.6s-55.5-6.1-64.9-12.4-1.37-18.2-1.37-18.2 2.36-14.14 13.52-12.26 55.62 35.7 55.62 35.7zm18.8-26.52l-2.75 2.75-2.62 2.86S44.53 76.48 38.2 67.1s5.56-17.4 5.56-17.4 7.48-12.23 17.13-6.3 38.2 53.9 38.2 53.9zm27.37-17.5l-3.58 1.5-3.5 1.7S83.68 40 81.3 29 93 14.93 93 14.93s11.52-8.54 18.24.57 15.2 64.3 15.2 64.3zm27.43 163.5l3.9.1 3.88-.1s14.9 53.8 12.52 64.87-16.4 8-16.4 8-14 3.05-16.4-8 12.52-64.87 12.52-64.87zM161.65 75l-3.88-.1-3.9.1S139 21.15 141.36 10.1s16.4-8 16.4-8 14-3 16.4 8-12.5 64.9-12.5 64.9z" fill="#68a336"/></svg>