<svg xmlns="http://www.w3.org/2000/svg" viewBox="0 0 330.01 330.01"><circle cx="165" cy="165" r="165" fill="#00aeef"/><path d="M126.45 104.8s-10 5.07-10 16.1c0 10.15 8.1 16.34 8.1 26.65 0 9.92-12.3 22-12.3 37.74 0 13.72 14.35 23.7 14.35 32.5 0 12.48-1 14.06-1 14.06s9.8-2.43 9.8-16c0-10.3-7.13-17.76-7.13-29.1 0-13.24 11.65-18.72 11.65-36.08 0-15.62-14.67-23.87-14.67-36.08.01-8.68 1.2-9.8 1.2-9.8zm77.82 0s-10 5.07-10 16.1c0 10.15 8.08 16.34 8.08 26.65 0 9.92-12.28 22-12.28 37.74 0 13.72 14.35 23.7 14.35 32.5 0 12.48-1 14.06-1 14.06s9.8-2.43 9.8-16c0-10.3-7.14-17.76-7.14-29.1 0-13.24 11.66-18.72 11.66-36.08 0-15.62-14.67-23.87-14.67-36.08 0-8.68 1.2-9.8 1.2-9.8zM165.5 79.25s-14 7.12-14 22.57c0 14.23 11.34 22.9 11.34 37.35 0 13.9-17.23 30.9-17.23 52.92 0 19.23 20.12 33.24 20.12 45.58 0 17.5-1.4 19.7-1.4 19.7S178.07 254 178.07 235c0-14.45-10-24.9-10-40.8 0-18.57 16.34-26.24 16.34-50.58 0-21.9-20.56-33.46-20.56-50.58-.01-12.23 1.65-13.8 1.65-13.8z" fill="#fff"/></svg>