<svg xmlns="http://www.w3.org/2000/svg" viewBox="0 0 330.01 330.01"><defs><clipPath id="A"><path d="M54.92 77h108.43v98.7H54.92z" fill="none"/></clipPath></defs><circle cx="165" cy="165" r="165" fill="#00aeef"/><g clip-path="url(#A)" fill="#fff"><path d="M63.74 102.13s12.93-1.6 18.32-6.8C87.8 89.8 88.85 77 88.85 77s1.56 13.7 7.32 18.9c5.1 4.6 17.94 6.2 17.94 6.2s-12 .66-18.43 6.83c-5.58 5.4-6.83 18.92-6.83 18.92s-1-11-6.9-18.72c-3.92-5.2-18.22-7-18.22-7m62.97-7.46s9.4-1.12 13.33-4.77C144.2 86 145 77 145 77s1.13 9.64 5.32 13.3c3.7 3.24 13 4.36 13 4.36s-8.75.46-13.4 4.8c-4.07 3.8-5 13.3-5 13.3s-.76-7.7-5-13.15c-2.85-3.65-13.26-4.94-13.26-4.94M54.92 157s9.4-1.17 13.33-4.94c4.18-4 5-13.34 5-13.34s1.13 10 5.33 13.76c3.7 3.35 13 4.52 13 4.52s-8.75.47-13.4 5c-4.07 3.92-5 13.76-5 13.76s-.76-8-5-13.62c-2.85-3.8-13.26-5.14-13.26-5.14"/></g><path d="M201.72 135.63c-11.62-12.15-31.1-13.24-43.54-1.18l-32 31.8q-15 16.14-30.1 32.23c-11.9 12.65-12.3 31.35-.7 43.54s31.08 13.32 43.54 1.3l32.2-31.83q15-16.18 30-32.3c11.87-12.68 12.24-31.38.6-43.54zM141.08 253l45.7-48c5.63-5.94 11.62-11.62 16.6-18.08a22.72 22.72 0 0 1 18.88-8.74c19.1.72 38.22.17 57.33.34h.07a5.44 5.44 0 0 1 4.3 8.41 4.75 4.75 0 0 1-.49.6q-28.28 30.1-57 59.75c-2.6 2.66-6.66 5.42-10.1 5.48l-75.3.24z" fill="#fff"/><path d="M147.17 244.27a37.07 37.07 0 0 1-6 5.86 38.94 38.94 0 0 1-7.32 4.42 39.34 39.34 0 0 1-17 3.55 40.64 40.64 0 0 1-29.91-17.17 29.69 29.69 0 0 1-5.09-17.22 32.11 32.11 0 0 1 5.54-17 35.41 35.41 0 0 1 5.9-6.81 25.86 25.86 0 0 1 8-4.65 27.41 27.41 0 0 1 26.13 4.31 23.6 23.6 0 0 1 6.12 7 22.28 22.28 0 0 1-3.27 26.28 18.39 18.39 0 0 1-26.23.6 15.28 15.28 0 0 1-2.63-18.57 14.69 14.69 0 0 1 3.23-3.91 12.75 12.75 0 0 1 4.62-2.5 13.34 13.34 0 0 1 5.22-.44 10.51 10.51 0 0 1 4.94 1.76 11.69 11.69 0 0 1 2 1.69 11.05 11.05 0 0 1 1.58 2.13 10.17 10.17 0 0 1 1.34 5.09 9.77 9.77 0 0 1-1.31 4.93 9.35 9.35 0 0 1-1.52 2 8.25 8.25 0 0 1-2 1.51 7.75 7.75 0 0 1-4.84.76 7.34 7.34 0 0 1-4.12-2.23 5.68 5.68 0 0 1-1.53-4.22 5.22 5.22 0 0 1 1.88-3.75 4.85 4.85 0 0 0-1.11 3.73 4.5 4.5 0 0 0 1.81 3.11 5.46 5.46 0 0 0 3.29 1.13 5 5 0 0 0 3.1-1 6.19 6.19 0 0 0 1.87-2.6 6 6 0 0 0 .32-3.1 5.71 5.71 0 0 0-1.19-2.7 7 7 0 0 0-2.37-1.78 11.89 11.89 0 0 0-2.83-.93 7 7 0 0 0-3 .2 7.33 7.33 0 0 0-2.61 1.43 9.16 9.16 0 0 0-2 2.45 9.75 9.75 0 0 0 1.7 11.89 12.82 12.82 0 0 0 5.9 3.27 13.09 13.09 0 0 0 6.75-.15 12.86 12.86 0 0 0 5.75-3.57 16.7 16.7 0 0 0 3.68-6 16.88 16.88 0 0 0-1.21-13.77 18.18 18.18 0 0 0-4.73-5.38 22 22 0 0 0-6.43-3.51 21.62 21.62 0 0 0-14.42 0 20.29 20.29 0 0 0-6.26 3.65 30 30 0 0 0-4.91 5.69 26.5 26.5 0 0 0-4.62 14.08 24.13 24.13 0 0 0 4.17 14 33.59 33.59 0 0 0 11.21 10.2 34.24 34.24 0 0 0 14.58 4.44 36.72 36.72 0 0 0 15.54-.84 39.17 39.17 0 0 0 14.29-7.36z" fill="#00aeef"/></svg>