<svg xmlns="http://www.w3.org/2000/svg" viewBox="0 0 330.01 330.01"><style><![CDATA[.E{letter-spacing:-0.01em}]]></style><circle cx="165" cy="165" r="165" fill="#00aeef"/><path d="M140.43 180.8c6.78 18.18 5.7 19.7 24.17 17.84 20.63-2.07 41.36-3.26 62-4.8 1.2-.1 2.4 0 3.52 0 1.57 6.27.47 8.62-5.12 10.3a28.76 28.76 0 0 1-8.33 1.26l-38.3-.67c-4-.14-5.94.93-6.87 5.16a45.81 45.81 0 0 1-5.13 13.26c-3.67 6.2-8.92 6.65-14.1 1.68-2.8-2.68-5.08-5.9-7.7-8.78-2.4-2.6-4.65-5.46-7.48-7.5-4.48-3.23-9.35-.87-10.23 4.6a14 14 0 0 0-.12 3.72c1.52 14.08-10.93 26.36-26.43 24.9-14.64-1.38-26.83-7.88-35.83-19.55-7.42-9.6-4.6-17.28 7.17-19.87 6.4-1.4 10.1-5.23 12.7-10.86 5.4-11.7 8.73-13.27 20.73-8.24 7.73 3.24 15.17 2.72 22.85.8l12.52-3.25z" fill="#fcfcfc"/><path d="M173.47 110c3.3-20.93 8.42-27.38 22-27.9 23.47-.9 30.15 8.1 35.07 28.25 2.7.5 5.77.43 8.1 1.7 3.1 1.7 6.88 3.88 8.2 6.83 9.46 21 10.78 42.33.84 63.74-2.25 4.85-5.45 6.82-11.05 7.17l-77.43 5.86c-7.46.6-8.72-.77-12.85-11-5.2-13.73-5.4-22.45-5.4-33.28 0-21.56 4.85-41.5 13.45-41.53a495.15 495.15 0 0 1 19.06.15zM143 152.62c0 24.4 5.7 37.9 11.87 37.9 5.52 0 12.78-12.9 12.78-39.5 0-28.23-7.37-39.5-12.78-39.5-7.24 0-11.94 18.7-11.87 41.08zm72.8-42.8c-.32-2-.52-4.1-1-6.12-1.34-5.54-4-7.4-10.5-7.48-8.54-.1-14.27 2.6-15.6 7.45a4.85 4.85 0 0 0-.17 3.1c.6 1.18 1.8 2.9 2.78 2.9 8.02.24 16.1.14 24.45.14zM161.3 176l-12 2.66a45.54 45.54 0 0 0 2.53 5.45c2.1 3.3 4.53 3.32 6.4-.06 1.2-2.17 1.78-4.67 3.07-8.05z" fill="#fff"/><text transform="translate(-743.52 -49.81)" fill="#fff" font-size="130" font-family="SofiaProBlack,Sofia Pro">I<tspan class="E" x="41.08" y="0">C</tspan><tspan x="131.56" y="0">ONS</tspan></text></svg>