<svg xmlns="http://www.w3.org/2000/svg" viewBox="0 0 315.53 316.57"><path d="M315.53,149.92h-73a85.16,85.16,0,0,0-169.57,0H0a158,158,0,0,1,315.53,0Z" fill="#5a4a42"/><circle cx="157.77" cy="157.96" r="76.65" fill="#68a336"/><g fill="#fff"><circle cx="157.77" cy="157.96" r="26.88"/><circle cx="157.77" cy="107.56" r="9.01"/><circle cx="202.56" cy="182.28" r="9.01"/><circle cx="113.6" cy="182.28" r="9.01"/></g><path d="M234.75 196l1.65-3.52 1.48-3.6s55.26 8 64.42 14.67.73 18.24.73 18.24-2.86 14.05-13.95 11.8-54.33-37.6-54.33-37.6zM215 221.85l2.84-2.64 2.72-2.77s48.22 28.14 54.23 37.73-6.16 17.18-6.16 17.18-7.9 12-17.34 5.7-36.3-55.2-36.3-55.2zm-27.94 16.57l3.63-1.4 3.56-1.55s34.17 44.15 36.14 55.3-12.14 13.63-12.14 13.63-11.82 8.12-18.22-1.2-12.97-64.78-12.97-64.78zm-32.14 4.88l3.9.07 3.88-.1s15.14 53.75 12.8 64.82-16.37 8.08-16.37 8.08-14 3.1-16.43-7.94 12.23-64.92 12.23-64.92zm-31.62-7.52l3.57 1.53 3.64 1.35s-6.1 55.5-12.4 64.9-18.2 1.37-18.2 1.37-14.14-2.37-12.27-13.53 35.67-55.6 35.67-55.6zM96.8 217l2.74 2.75 2.87 2.62s-26.4 49.15-35.8 55.5-17.4-5.56-17.4-5.56-12.2-7.5-6.3-17.13S96.8 217 96.8 217zm-17.53-27.4l1.5 3.58 1.68 3.5s-42.94 35.7-54 38-14-11.66-14-11.66-8.53-11.52.57-18.25 64.24-15.17 64.24-15.17z" fill="#68a336"/></svg>